<?xml version="1.0" standalone="no"?>
<!DOCTYPE svg PUBLIC "-//W3C//DTD SVG 20010904//EN"
 "http://www.w3.org/TR/2001/REC-SVG-20010904/DTD/svg10.dtd">
<svg version="1.0" xmlns="http://www.w3.org/2000/svg"
 width="700.000000pt" height="700.000000pt" viewBox="0 0 700.000000 700.000000"
 preserveAspectRatio="xMidYMid meet">
<metadata>
Created by potrace 1.14, written by Peter Selinger 2001-2017
</metadata>
<g transform="translate(0.000000,700.000000) scale(0.100000,-0.100000)"
fill="#000000" stroke="none">
<path d="M2084 6835 c-27 -14 -62 -37 -79 -52 -16 -16 -68 -61 -115 -102 -47
-40 -96 -83 -110 -95 -14 -12 -92 -82 -175 -156 -82 -74 -163 -146 -179 -160
-32 -29 -39 -35 -166 -150 -135 -122 -141 -128 -185 -168 -22 -21 -89 -82
-149 -136 -60 -54 -116 -106 -125 -115 -19 -18 -204 -189 -290 -267 -146 -134
-140 -127 -150 -179 -5 -28 -9 -73 -10 -102 -1 -47 3 -54 35 -82 l35 -32 62
44 c34 24 105 72 157 107 52 36 97 67 100 70 3 3 25 18 50 35 25 16 61 42 80
56 75 56 512 360 524 365 9 3 18 -7 25 -26 9 -27 4 -58 -30 -198 -22 -92 -42
-174 -44 -182 -2 -8 -28 -112 -58 -230 -31 -118 -69 -285 -85 -370 -31 -156
-35 -183 -48 -275 -3 -27 -7 -57 -9 -65 -3 -13 -6 -47 -20 -185 -23 -221 -23
-704 -1 -885 2 -19 7 -64 10 -100 4 -36 9 -78 11 -95 3 -16 7 -48 10 -70 38
-276 121 -623 225 -935 113 -338 142 -416 187 -510 202 -415 568 -768 1048
-1008 330 -165 886 -334 1300 -396 240 -36 380 -44 650 -40 132 2 258 6 280 8
22 3 65 8 95 11 114 13 349 51 471 76 52 10 105 21 117 24 44 8 249 65 322 89
297 97 515 200 743 350 103 68 107 72 101 100 -3 16 -7 35 -8 42 -1 7 -5 16
-8 19 -3 4 -64 -17 -135 -45 -117 -48 -431 -157 -477 -166 -11 -2 -40 -10 -65
-18 -51 -17 -262 -72 -301 -79 -14 -3 -43 -10 -65 -15 -22 -6 -53 -13 -70 -15
-16 -3 -68 -12 -115 -21 -110 -20 -135 -24 -195 -31 -27 -3 -61 -8 -75 -10
-176 -28 -674 -28 -855 0 -16 3 -46 7 -65 9 -80 11 -120 18 -205 37 -49 11
-101 22 -115 25 -35 7 -255 69 -375 106 -122 37 -332 112 -400 143 -27 12 -61
26 -75 30 -57 18 -293 144 -398 213 -416 272 -656 630 -831 1242 -35 125 -103
411 -125 530 -9 47 -18 94 -20 105 -2 11 -9 61 -15 110 -7 50 -14 104 -16 120
-14 100 -20 252 -20 485 0 269 7 390 30 575 3 22 8 60 11 85 3 25 7 56 10 70
2 14 7 41 10 60 12 81 66 351 84 420 10 41 22 90 25 109 3 19 8 38 11 43 3 4
7 16 9 25 15 77 113 404 169 570 29 84 117 278 149 330 5 8 47 -32 125 -120
274 -311 391 -421 510 -481 28 -14 52 -24 52 -21 0 3 9 1 19 -4 10 -6 60 -13
110 -15 l91 -5 -101 197 c-163 316 -206 397 -299 567 -166 303 -188 350 -225
465 -100 315 -216 423 -371 345z"/>
</g>
</svg>
