<svg width="81" height="50" viewBox="0 0 81 50" fill="none" xmlns="http://www.w3.org/2000/svg">
<path d="M14.0637 32.3294C14.0637 32.8618 14.2412 33.2464 14.6258 33.483C14.9807 33.7493 15.4244 33.8676 15.9569 33.8676C16.371 33.8676 16.6668 33.7788 16.8739 33.5422C17.081 33.3351 17.2881 32.9802 17.4951 32.5069C17.6726 32.0927 17.9388 31.4124 18.2938 30.4362C18.6488 29.46 18.8854 28.8684 18.9742 28.6613H21.8731C24.5946 28.6613 26.2807 28.6909 26.9907 28.6909C27.0202 28.898 27.5231 30.2587 28.5289 32.7435C28.7064 33.1872 28.9134 33.483 29.1501 33.6605C29.3867 33.838 29.7121 33.8972 30.1558 33.8972C30.6291 33.8972 31.0729 33.7788 31.4278 33.483C31.7828 33.1872 31.9603 32.8914 31.9603 32.5364C31.9603 32.2406 31.8715 31.8857 31.6941 31.4715C31.0433 30.0516 30.2446 28.0993 29.2684 25.6145C29.2092 25.4961 29.1501 25.3482 29.0318 25.1116C28.9134 24.8749 28.8543 24.7566 28.8543 24.6974C28.4993 23.8396 27.8189 22.183 26.8723 19.7278C25.9257 17.2726 25.275 15.6456 24.9496 14.8173C24.6538 14.0187 23.9734 13.6045 22.9676 13.6045C22.0506 13.6045 21.4294 13.9891 21.1336 14.7582L17.4951 23.8396L14.5666 30.6432C14.2116 31.3532 14.0637 31.9152 14.0637 32.3294ZM23.0268 17.598L26.0145 25.999C24.3875 26.0582 22.3464 26.0582 19.8912 26.0582C21.6956 21.266 22.731 18.4262 23.0268 17.598ZM34.6383 21.6506C34.6383 22.0056 34.6383 22.538 34.6383 23.248C34.6383 23.9579 34.6679 24.4608 34.6679 24.7862C34.6679 25.082 34.6383 27.5076 34.5791 32.0631C34.5496 32.7435 34.6679 33.2168 34.9341 33.483C35.2003 33.7493 35.6145 33.8676 36.1469 33.8676C37.2119 33.8676 37.7739 33.4239 37.8035 32.5069C37.8035 31.8857 37.8035 30.9982 37.8035 29.8741C37.7739 28.7501 37.7739 28.0401 37.7739 27.7443C37.7739 26.3244 38.0993 25.1707 38.8092 24.3425C39.4896 23.5142 40.3475 23.0705 41.3532 23.0705H41.8561C42.2702 23.0705 42.5956 22.9226 42.8323 22.6268C43.0689 22.331 43.1873 21.976 43.1873 21.5323C43.1873 20.5265 42.6548 19.994 41.6195 19.994C40.8208 19.994 40.0517 20.2603 39.3121 20.7336C38.5726 21.2365 38.0106 21.9168 37.5964 22.8043L37.4781 21.1773C37.3598 20.4673 36.9456 20.1124 36.2357 20.1124C35.7032 20.1124 35.3187 20.2603 35.0229 20.4969C34.727 20.7632 34.6087 21.1477 34.6383 21.6506ZM45.5001 21.5618V32.5069C45.5001 32.9802 45.648 33.3056 45.9438 33.5422C46.2397 33.7788 46.6242 33.8972 47.0975 33.8972C47.63 33.8972 48.0441 33.7788 48.3399 33.5126C48.6357 33.2464 48.7541 32.8323 48.7541 32.2998V28.6022V25.2595V21.8872C48.7541 21.2365 48.6061 20.7632 48.3103 20.4969C48.0145 20.2307 47.6004 20.0828 47.0679 20.0828C46.6538 20.0828 46.2692 20.2011 45.9734 20.4378C45.6776 20.6744 45.5001 21.059 45.5001 21.5618ZM47.0088 16.5626C47.6595 16.5626 48.2216 16.4147 48.6357 16.0893C49.0499 15.7639 49.2569 15.2611 49.2569 14.6103C49.2569 14.0187 49.0794 13.5454 48.7245 13.1608C48.3695 12.8058 47.8962 12.5988 47.2454 12.5988C46.713 12.5988 46.2692 12.7762 45.8551 13.0721C45.441 13.3679 45.1747 13.8116 45.1156 14.344C45.0268 14.9948 45.1747 15.5273 45.5297 15.9414C45.8847 16.3556 46.3876 16.5626 47.0088 16.5626ZM57.8327 20.0236C56.3832 20.0236 55.1112 20.4378 54.0167 21.266C52.9222 22.0943 52.3898 23.1592 52.3898 24.4016C52.3898 25.0524 52.5081 25.5849 52.8039 26.0286C53.0701 26.5019 53.4547 26.8569 53.9871 27.0935C54.5196 27.3597 55.0225 27.5668 55.5254 27.6851C55.9987 27.8035 56.6199 27.9218 57.3298 28.0105C58.3356 28.188 59.0751 28.3655 59.5188 28.5726C59.9625 28.8092 60.1992 29.1642 60.1992 29.6967C60.1992 30.2291 59.9625 30.6137 59.5188 30.9095C59.0751 31.2053 58.5131 31.3236 57.8327 31.3236C57.0636 31.3236 56.2057 31.2053 55.3183 30.9095C54.4013 30.6137 53.8097 30.4658 53.5434 30.4658C52.6856 30.4658 52.2714 30.9982 52.2714 32.0631C52.2714 32.5956 52.8039 33.0393 53.8984 33.4239C54.9929 33.8084 56.2057 33.9859 57.5369 33.9859C59.2526 33.9859 60.6429 33.6014 61.6486 32.8323C62.6544 32.0631 63.1573 30.9982 63.1573 29.6079C63.1573 28.3655 62.7136 27.4189 61.8557 26.8273C60.9683 26.2357 59.7555 25.8511 58.1581 25.6145C57.389 25.5257 56.9157 25.4666 56.7678 25.4074C55.8212 25.2299 55.3479 24.8158 55.3479 24.2241C55.3479 23.7508 55.5845 23.3367 56.0578 23.0409C56.5311 22.7451 57.1523 22.5676 57.8623 22.5676C58.4835 22.5676 59.1934 22.6859 59.9625 22.9226C60.7316 23.1592 61.2049 23.248 61.4416 23.248C62.2699 23.248 62.7136 22.8043 62.7136 21.8577C62.7136 21.3844 62.3882 20.9998 61.7966 20.704C60.8204 20.2603 59.4892 20.0236 57.8327 20.0236ZM68.8096 27.833C69.6674 27.833 70.6436 27.833 71.7381 27.833C72.803 27.833 73.6609 27.8035 74.3117 27.8035C74.9329 27.8035 75.4949 27.8035 75.9978 27.7739C76.9444 27.7739 77.5656 27.5964 77.8614 27.2414C78.1572 26.8864 78.3051 26.2948 78.3051 25.437C78.3051 24.0171 77.7135 22.7747 76.5598 21.6506C75.4062 20.5561 73.9863 19.994 72.3297 19.994C70.407 19.994 68.78 20.7336 67.4784 22.183C66.1769 23.6325 65.5261 25.4074 65.5261 27.4781C65.5557 29.2825 66.2065 30.8207 67.4784 32.0927C68.7504 33.3647 70.3182 33.9859 72.1523 33.9859C74.1046 33.9859 75.6724 33.6014 76.9148 32.8027C77.5064 32.4181 77.8023 31.9744 77.8023 31.4419C77.8023 31.0574 77.6543 30.7024 77.3881 30.377C77.0923 30.0812 76.7965 29.9037 76.4415 29.9037C76.0866 29.9037 75.702 30.0516 75.2879 30.2883C74.4004 30.8207 73.4242 31.087 72.4185 31.087C71.4127 31.087 70.5845 30.7912 69.9041 30.1404C69.2237 29.5192 68.8688 28.7501 68.8096 27.833ZM72.3889 22.6268C73.158 22.6268 73.8088 22.893 74.3708 23.4255C74.9329 23.9579 75.2287 24.6087 75.2287 25.3778C75.2287 25.5257 75.1104 25.6145 74.8737 25.644C73.7496 25.7328 71.7381 25.7624 68.8392 25.7624C68.9279 24.9341 69.3125 24.2241 69.9633 23.5734C70.614 22.9522 71.4423 22.6268 72.3889 22.6268Z" fill="#FBFCFD"/>
<path d="M45.5241 44.5565C41.8796 47.2419 37.6597 48.3289 33.3119 48.9043C28.005 49.6076 22.9539 48.6486 17.9667 46.7304C13.4271 44.9844 9.27106 41.4662 7.92835 36.6282C5.05113 29.0195 4.60357 21.2829 6.77747 13.4185C7.09716 12.1398 7.41686 10.861 7.73655 9.51829C7.73655 9.45435 7.6726 9.32647 7.54472 9.00678C5.179 10.6692 2.87722 12.3316 0.511499 13.93C0.319684 13.8022 0.191815 13.6743 0 13.4825C0.0639384 12.971 -0.0639423 12.2676 0.25575 11.948C4.09205 8.3674 7.92836 4.85079 11.8925 1.39811C12.9795 0.439039 13.9386 0.822672 14.5779 2.16538C14.9616 2.8687 15.0895 3.76384 15.4092 4.46716C16.1125 5.80986 16.8797 7.15257 17.5831 8.49527C18.2224 9.7101 18.8618 10.9889 19.5651 12.3316C17.4552 12.3955 16.9437 12.0119 13.1074 7.60014C12.7877 8.30346 12.468 8.81496 12.2122 9.45435C9.84651 16.2958 8.50381 23.265 10.0383 30.554C12.0204 40.0808 14.8337 43.4696 25.7032 46.2829C31.7774 47.8174 37.7236 46.6665 43.4781 44.6205C44.1175 44.3647 44.7569 44.1089 45.3962 43.8532C45.3962 44.1089 45.4602 44.3008 45.5241 44.5565Z" fill="#FFCE00"/>
</svg>
