<svg width="432" height="432" viewBox="0 0 432 432" fill="none" xmlns="http://www.w3.org/2000/svg">
<g filter="url(#filter0_dd_116_2778)">
<circle cx="216" cy="212" r="208" fill="#D9D9D9"/>
</g>
<path d="M216 4C101.125 4 8 97.1248 8 212C8 267.649 29.8537 318.193 65.4471 355.52L216 212V4Z" fill="#A1E87D"/>
<path d="M95.2321 173.84C93.5201 173.84 92.0641 173.328 90.8641 172.304C89.6801 171.28 89.0721 169.928 89.0401 168.248H91.6801C91.7441 169.16 92.1041 169.888 92.7601 170.432C93.4321 170.976 94.2561 171.248 95.2321 171.248C96.1121 171.248 96.8321 171.016 97.3921 170.552C97.9681 170.088 98.2641 169.448 98.2801 168.632C98.2801 167.736 97.9841 167.064 97.3921 166.616C96.8161 166.152 96.0161 165.92 94.9921 165.92H93.6481V163.664H94.9921C95.8401 163.664 96.5121 163.44 97.0081 162.992C97.5201 162.544 97.7841 161.96 97.8001 161.24C97.8001 160.536 97.5441 159.968 97.0321 159.536C96.5201 159.088 95.8881 158.864 95.1361 158.864C94.2401 158.864 93.4961 159.128 92.9041 159.656C92.3121 160.168 92.0161 160.872 92.0161 161.768H89.3521C89.3521 160.104 89.9121 158.776 91.0321 157.784C92.1681 156.776 93.5361 156.272 95.1361 156.272C96.7201 156.272 98.0001 156.72 98.9761 157.616C99.9681 158.512 100.464 159.664 100.464 161.072C100.464 161.856 100.264 162.584 99.8641 163.256C99.4641 163.912 98.9681 164.416 98.3761 164.768C99.1601 165.104 99.7841 165.624 100.248 166.328C100.712 167.032 100.944 167.856 100.944 168.8C100.944 170.288 100.408 171.504 99.3361 172.448C98.2801 173.376 96.9121 173.84 95.2321 173.84ZM108.312 173.84C106.616 173.84 105.216 173.336 104.112 172.328C103.008 171.304 102.456 170.008 102.456 168.44C102.456 166.456 103.264 165.024 104.88 164.144C103.824 163.328 103.296 162.2 103.296 160.76C103.296 159.464 103.76 158.392 104.688 157.544C105.632 156.696 106.84 156.272 108.312 156.272C109.8 156.272 111.008 156.696 111.936 157.544C112.88 158.376 113.352 159.448 113.352 160.76C113.352 162.2 112.824 163.328 111.768 164.144C113.384 165.024 114.192 166.456 114.192 168.44C114.192 170.024 113.64 171.32 112.536 172.328C111.448 173.336 110.04 173.84 108.312 173.84ZM108.312 171.368C109.288 171.368 110.064 171.08 110.64 170.504C111.216 169.928 111.504 169.224 111.504 168.392C111.504 167.544 111.216 166.84 110.64 166.28C110.064 165.704 109.296 165.416 108.336 165.416C107.36 165.416 106.584 165.704 106.008 166.28C105.432 166.84 105.144 167.544 105.144 168.392C105.144 169.224 105.432 169.928 106.008 170.504C106.6 171.08 107.368 171.368 108.312 171.368ZM108.312 163.184C109.048 163.184 109.64 162.968 110.088 162.536C110.552 162.088 110.784 161.552 110.784 160.928C110.784 160.272 110.56 159.736 110.112 159.32C109.664 158.888 109.064 158.672 108.312 158.672C107.592 158.672 107 158.888 106.536 159.32C106.088 159.752 105.864 160.288 105.864 160.928C105.864 161.552 106.096 162.088 106.56 162.536C107.024 162.968 107.608 163.184 108.312 163.184ZM122.378 173.6H119.594L130.394 156.56H133.178L122.378 173.6ZM132.77 173.792C131.458 173.792 130.338 173.328 129.41 172.4C128.498 171.472 128.042 170.36 128.042 169.064C128.042 167.752 128.498 166.64 129.41 165.728C130.338 164.8 131.458 164.336 132.77 164.336C134.066 164.336 135.178 164.8 136.106 165.728C137.034 166.64 137.498 167.752 137.498 169.064C137.498 170.36 137.034 171.472 136.106 172.4C135.178 173.328 134.066 173.792 132.77 173.792ZM131.042 170.768C131.522 171.248 132.098 171.488 132.77 171.488C133.442 171.488 134.002 171.256 134.45 170.792C134.914 170.312 135.146 169.736 135.146 169.064C135.146 168.392 134.914 167.824 134.45 167.36C134.002 166.88 133.442 166.64 132.77 166.64C132.098 166.64 131.522 166.88 131.042 167.36C130.578 167.84 130.346 168.408 130.346 169.064C130.346 169.72 130.578 170.288 131.042 170.768ZM120.002 165.824C118.69 165.824 117.57 165.36 116.642 164.432C115.73 163.504 115.274 162.392 115.274 161.096C115.274 159.784 115.73 158.672 116.642 157.76C117.57 156.832 118.69 156.368 120.002 156.368C121.298 156.368 122.41 156.832 123.338 157.76C124.266 158.672 124.73 159.784 124.73 161.096C124.73 162.392 124.266 163.504 123.338 164.432C122.41 165.36 121.298 165.824 120.002 165.824ZM120.002 163.52C120.658 163.52 121.218 163.28 121.682 162.8C122.162 162.32 122.402 161.752 122.402 161.096C122.402 160.44 122.162 159.872 121.682 159.392C121.218 158.912 120.658 158.672 120.002 158.672C119.33 158.672 118.762 158.912 118.298 159.392C117.834 159.856 117.602 160.424 117.602 161.096C117.602 161.768 117.834 162.344 118.298 162.824C118.762 163.288 119.33 163.52 120.002 163.52Z" fill="white"/>
<path d="M424 212C424 97.1248 330.875 4 216 4V212H424Z" fill="#E4736A"/>
<path d="M290.784 113.808V116.4H279.504V115.44C279.504 114.832 279.592 114.256 279.768 113.712C279.96 113.152 280.16 112.688 280.368 112.32C280.576 111.952 280.92 111.544 281.4 111.096C281.88 110.632 282.248 110.304 282.504 110.112C282.76 109.904 283.208 109.568 283.848 109.104C284.504 108.64 284.92 108.344 285.096 108.216C286.104 107.48 286.832 106.832 287.28 106.272C287.728 105.712 287.952 105.04 287.952 104.256C287.952 103.472 287.712 102.848 287.232 102.384C286.752 101.904 286.088 101.664 285.24 101.664C284.36 101.664 283.632 101.928 283.056 102.456C282.48 102.968 282.184 103.672 282.168 104.568H279.504C279.504 102.952 280.048 101.632 281.136 100.608C282.24 99.5839 283.616 99.0719 285.264 99.0719C286.784 99.0719 288.056 99.5199 289.08 100.416C290.104 101.312 290.616 102.568 290.616 104.184C290.616 105.464 290.32 106.544 289.728 107.424C289.152 108.288 288.192 109.2 286.848 110.16C286.64 110.32 286.256 110.592 285.696 110.976C285.136 111.36 284.72 111.656 284.448 111.864C284.192 112.072 283.912 112.36 283.608 112.728C283.304 113.08 283.096 113.44 282.984 113.808H290.784ZM297.946 116.64C296.394 116.64 295.034 116.152 293.866 115.176C292.698 114.2 292.098 113.016 292.066 111.624H294.778C294.954 112.344 295.33 112.928 295.906 113.376C296.498 113.824 297.178 114.048 297.946 114.048C298.89 114.048 299.658 113.744 300.25 113.136C300.842 112.512 301.138 111.76 301.138 110.88C301.138 109.968 300.842 109.216 300.25 108.624C299.674 108.016 298.93 107.712 298.018 107.712C296.642 107.712 295.65 108.296 295.042 109.464L292.666 108.72L294.49 99.3599H302.602V101.928H296.554L295.762 106.008C296.466 105.512 297.354 105.264 298.426 105.264C300.026 105.264 301.322 105.816 302.314 106.92C303.306 108.024 303.802 109.432 303.802 111.144C303.802 112.744 303.25 114.064 302.146 115.104C301.058 116.128 299.658 116.64 297.946 116.64ZM311.878 116.4H309.094L319.894 99.3599H322.678L311.878 116.4ZM322.27 116.592C320.958 116.592 319.838 116.128 318.91 115.2C317.998 114.272 317.542 113.16 317.542 111.864C317.542 110.552 317.998 109.44 318.91 108.528C319.838 107.6 320.958 107.136 322.27 107.136C323.566 107.136 324.678 107.6 325.606 108.528C326.534 109.44 326.998 110.552 326.998 111.864C326.998 113.16 326.534 114.272 325.606 115.2C324.678 116.128 323.566 116.592 322.27 116.592ZM320.542 113.568C321.022 114.048 321.598 114.288 322.27 114.288C322.942 114.288 323.502 114.056 323.95 113.592C324.414 113.112 324.646 112.536 324.646 111.864C324.646 111.192 324.414 110.624 323.95 110.16C323.502 109.68 322.942 109.44 322.27 109.44C321.598 109.44 321.022 109.68 320.542 110.16C320.078 110.64 319.846 111.208 319.846 111.864C319.846 112.52 320.078 113.088 320.542 113.568ZM309.502 108.624C308.19 108.624 307.07 108.16 306.142 107.232C305.23 106.304 304.774 105.192 304.774 103.896C304.774 102.584 305.23 101.472 306.142 100.56C307.07 99.6319 308.19 99.1679 309.502 99.1679C310.798 99.1679 311.91 99.6319 312.838 100.56C313.766 101.472 314.23 102.584 314.23 103.896C314.23 105.192 313.766 106.304 312.838 107.232C311.91 108.16 310.798 108.624 309.502 108.624ZM309.502 106.32C310.158 106.32 310.718 106.08 311.182 105.6C311.662 105.12 311.902 104.552 311.902 103.896C311.902 103.24 311.662 102.672 311.182 102.192C310.718 101.712 310.158 101.472 309.502 101.472C308.83 101.472 308.262 101.712 307.798 102.192C307.334 102.656 307.102 103.224 307.102 103.896C307.102 104.568 307.334 105.144 307.798 105.624C308.262 106.088 308.83 106.32 309.502 106.32Z" fill="white"/>
<path d="M216 420C330.875 420 424 326.875 424 212H216V420Z" fill="#97BFFF"/>
<path d="M290.784 321.808V324.4H279.504V323.44C279.504 322.832 279.592 322.256 279.768 321.712C279.96 321.152 280.16 320.688 280.368 320.32C280.576 319.952 280.92 319.544 281.4 319.096C281.88 318.632 282.248 318.304 282.504 318.112C282.76 317.904 283.208 317.568 283.848 317.104C284.504 316.64 284.92 316.344 285.096 316.216C286.104 315.48 286.832 314.832 287.28 314.272C287.728 313.712 287.952 313.04 287.952 312.256C287.952 311.472 287.712 310.848 287.232 310.384C286.752 309.904 286.088 309.664 285.24 309.664C284.36 309.664 283.632 309.928 283.056 310.456C282.48 310.968 282.184 311.672 282.168 312.568H279.504C279.504 310.952 280.048 309.632 281.136 308.608C282.24 307.584 283.616 307.072 285.264 307.072C286.784 307.072 288.056 307.52 289.08 308.416C290.104 309.312 290.616 310.568 290.616 312.184C290.616 313.464 290.32 314.544 289.728 315.424C289.152 316.288 288.192 317.2 286.848 318.16C286.64 318.32 286.256 318.592 285.696 318.976C285.136 319.36 284.72 319.656 284.448 319.864C284.192 320.072 283.912 320.36 283.608 320.728C283.304 321.08 283.096 321.44 282.984 321.808H290.784ZM297.946 324.64C296.394 324.64 295.034 324.152 293.866 323.176C292.698 322.2 292.098 321.016 292.066 319.624H294.778C294.954 320.344 295.33 320.928 295.906 321.376C296.498 321.824 297.178 322.048 297.946 322.048C298.89 322.048 299.658 321.744 300.25 321.136C300.842 320.512 301.138 319.76 301.138 318.88C301.138 317.968 300.842 317.216 300.25 316.624C299.674 316.016 298.93 315.712 298.018 315.712C296.642 315.712 295.65 316.296 295.042 317.464L292.666 316.72L294.49 307.36H302.602V309.928H296.554L295.762 314.008C296.466 313.512 297.354 313.264 298.426 313.264C300.026 313.264 301.322 313.816 302.314 314.92C303.306 316.024 303.802 317.432 303.802 319.144C303.802 320.744 303.25 322.064 302.146 323.104C301.058 324.128 299.658 324.64 297.946 324.64ZM311.878 324.4H309.094L319.894 307.36H322.678L311.878 324.4ZM322.27 324.592C320.958 324.592 319.838 324.128 318.91 323.2C317.998 322.272 317.542 321.16 317.542 319.864C317.542 318.552 317.998 317.44 318.91 316.528C319.838 315.6 320.958 315.136 322.27 315.136C323.566 315.136 324.678 315.6 325.606 316.528C326.534 317.44 326.998 318.552 326.998 319.864C326.998 321.16 326.534 322.272 325.606 323.2C324.678 324.128 323.566 324.592 322.27 324.592ZM320.542 321.568C321.022 322.048 321.598 322.288 322.27 322.288C322.942 322.288 323.502 322.056 323.95 321.592C324.414 321.112 324.646 320.536 324.646 319.864C324.646 319.192 324.414 318.624 323.95 318.16C323.502 317.68 322.942 317.44 322.27 317.44C321.598 317.44 321.022 317.68 320.542 318.16C320.078 318.64 319.846 319.208 319.846 319.864C319.846 320.52 320.078 321.088 320.542 321.568ZM309.502 316.624C308.19 316.624 307.07 316.16 306.142 315.232C305.23 314.304 304.774 313.192 304.774 311.896C304.774 310.584 305.23 309.472 306.142 308.56C307.07 307.632 308.19 307.168 309.502 307.168C310.798 307.168 311.91 307.632 312.838 308.56C313.766 309.472 314.23 310.584 314.23 311.896C314.23 313.192 313.766 314.304 312.838 315.232C311.91 316.16 310.798 316.624 309.502 316.624ZM309.502 314.32C310.158 314.32 310.718 314.08 311.182 313.6C311.662 313.12 311.902 312.552 311.902 311.896C311.902 311.24 311.662 310.672 311.182 310.192C310.718 309.712 310.158 309.472 309.502 309.472C308.83 309.472 308.262 309.712 307.798 310.192C307.334 310.656 307.102 311.224 307.102 311.896C307.102 312.568 307.334 313.144 307.798 313.624C308.262 314.088 308.83 314.32 309.502 314.32Z" fill="#FBFCFD"/>
<path d="M215.753 420V212L65.2 355.52C103.082 395.246 156.526 420 215.753 420Z" fill="#F7B941"/>
<path d="M143.632 346.24V331.816H140.2L142.216 329.2H146.272V346.24H143.632ZM160.041 343.648V346.24H148.761V345.28C148.761 344.672 148.849 344.096 149.025 343.552C149.217 342.992 149.417 342.528 149.625 342.16C149.833 341.792 150.177 341.384 150.657 340.936C151.137 340.472 151.505 340.144 151.761 339.952C152.017 339.744 152.465 339.408 153.105 338.944C153.761 338.48 154.177 338.184 154.353 338.056C155.361 337.32 156.089 336.672 156.537 336.112C156.985 335.552 157.209 334.88 157.209 334.096C157.209 333.312 156.969 332.688 156.489 332.224C156.009 331.744 155.345 331.504 154.497 331.504C153.617 331.504 152.889 331.768 152.313 332.296C151.737 332.808 151.441 333.512 151.425 334.408H148.761C148.761 332.792 149.305 331.472 150.393 330.448C151.497 329.424 152.873 328.912 154.521 328.912C156.041 328.912 157.313 329.36 158.337 330.256C159.361 331.152 159.873 332.408 159.873 334.024C159.873 335.304 159.577 336.384 158.985 337.264C158.409 338.128 157.449 339.04 156.105 340C155.897 340.16 155.513 340.432 154.953 340.816C154.393 341.2 153.977 341.496 153.705 341.704C153.449 341.912 153.169 342.2 152.865 342.568C152.561 342.92 152.353 343.28 152.241 343.648H160.041ZM168.331 346.24H165.547L176.347 329.2H179.131L168.331 346.24ZM178.723 346.432C177.411 346.432 176.291 345.968 175.363 345.04C174.451 344.112 173.995 343 173.995 341.704C173.995 340.392 174.451 339.28 175.363 338.368C176.291 337.44 177.411 336.976 178.723 336.976C180.019 336.976 181.131 337.44 182.059 338.368C182.987 339.28 183.451 340.392 183.451 341.704C183.451 343 182.987 344.112 182.059 345.04C181.131 345.968 180.019 346.432 178.723 346.432ZM176.995 343.408C177.475 343.888 178.051 344.128 178.723 344.128C179.395 344.128 179.955 343.896 180.403 343.432C180.867 342.952 181.099 342.376 181.099 341.704C181.099 341.032 180.867 340.464 180.403 340C179.955 339.52 179.395 339.28 178.723 339.28C178.051 339.28 177.475 339.52 176.995 340C176.531 340.48 176.299 341.048 176.299 341.704C176.299 342.36 176.531 342.928 176.995 343.408ZM165.955 338.464C164.643 338.464 163.523 338 162.595 337.072C161.683 336.144 161.227 335.032 161.227 333.736C161.227 332.424 161.683 331.312 162.595 330.4C163.523 329.472 164.643 329.008 165.955 329.008C167.251 329.008 168.363 329.472 169.291 330.4C170.219 331.312 170.683 332.424 170.683 333.736C170.683 335.032 170.219 336.144 169.291 337.072C168.363 338 167.251 338.464 165.955 338.464ZM165.955 336.16C166.611 336.16 167.171 335.92 167.635 335.44C168.115 334.96 168.355 334.392 168.355 333.736C168.355 333.08 168.115 332.512 167.635 332.032C167.171 331.552 166.611 331.312 165.955 331.312C165.283 331.312 164.715 331.552 164.251 332.032C163.787 332.496 163.555 333.064 163.555 333.736C163.555 334.408 163.787 334.984 164.251 335.464C164.715 335.928 165.283 336.16 165.955 336.16Z" fill="white"/>
<defs>
<filter id="filter0_dd_116_2778" x="0" y="0" width="432" height="432" filterUnits="userSpaceOnUse" color-interpolation-filters="sRGB">
<feFlood flood-opacity="0" result="BackgroundImageFix"/>
<feColorMatrix in="SourceAlpha" type="matrix" values="0 0 0 0 0 0 0 0 0 0 0 0 0 0 0 0 0 0 127 0" result="hardAlpha"/>
<feOffset dy="4"/>
<feGaussianBlur stdDeviation="4"/>
<feColorMatrix type="matrix" values="0 0 0 0 0.054902 0 0 0 0 0.054902 0 0 0 0 0.172549 0 0 0 0.2 0"/>
<feBlend mode="normal" in2="BackgroundImageFix" result="effect1_dropShadow_116_2778"/>
<feColorMatrix in="SourceAlpha" type="matrix" values="0 0 0 0 0 0 0 0 0 0 0 0 0 0 0 0 0 0 127 0" result="hardAlpha"/>
<feOffset dy="1"/>
<feGaussianBlur stdDeviation="1"/>
<feColorMatrix type="matrix" values="0 0 0 0 0.054902 0 0 0 0 0.054902 0 0 0 0 0.172549 0 0 0 0.15 0"/>
<feBlend mode="normal" in2="effect1_dropShadow_116_2778" result="effect2_dropShadow_116_2778"/>
<feBlend mode="normal" in="SourceGraphic" in2="effect2_dropShadow_116_2778" result="shape"/>
</filter>
</defs>
</svg>
