<svg width="200" height="200" viewBox="0 0 200 200" fill="none" xmlns="http://www.w3.org/2000/svg">
<path fill-rule="evenodd" clip-rule="evenodd" d="M100.019 199.955C119.793 199.948 139.119 194.077 155.556 183.086C171.993 172.096 184.802 156.478 192.363 138.208C199.924 119.939 201.898 99.8372 198.035 80.4457C194.172 61.0543 184.646 43.2436 170.661 29.2657C156.676 15.2879 138.86 5.77051 119.466 1.91708C100.072 -1.93636 79.9709 0.0471865 61.7042 7.61687C43.4375 15.1866 27.8256 28.0024 16.8424 44.4441C5.85927 60.8858 -0.00190905 80.2148 4.6643e-07 99.9873C0.0536609 126.492 10.6102 151.896 29.3572 170.633C48.1043 189.37 73.5136 199.914 100.019 199.955V199.955Z" fill="#F6A7AA"/>
<path fill-rule="evenodd" clip-rule="evenodd" d="M137.047 15.2281C123.819 10.9476 99.8454 90.4117 123.519 98.0741C147.193 105.736 150.266 19.5375 137.047 15.2281Z" fill="#C99D6D"/>
<path fill-rule="evenodd" clip-rule="evenodd" d="M139.385 19.8467C132.621 16.8996 122.253 45.5489 132.621 69.763C135.433 76.3625 125.471 96.1415 129.964 98.1127C146.488 105.34 148.642 23.8856 139.385 19.8467Z" fill="#A07747"/>
<path fill-rule="evenodd" clip-rule="evenodd" d="M137.704 87.8801L156.566 143.922L166.808 174.35C148.484 190.86 124.685 199.984 100.019 199.955V199.955C75.3501 199.986 51.5472 190.862 33.2202 174.35L43.4628 143.922L62.3245 87.8801H137.704Z" fill="#C99D6D"/>
<path fill-rule="evenodd" clip-rule="evenodd" d="M125.481 162.194L138.235 181.075L144.033 189.771C130.309 196.501 115.227 200 99.9419 200C84.6566 200 69.5743 196.501 55.8506 189.771L61.6483 181.075L74.3935 162.194H125.394H125.481Z" fill="#E1C19E"/>
<path fill-rule="evenodd" clip-rule="evenodd" d="M63.4944 15.2281C76.7228 10.9476 100.696 90.4117 77.0223 98.0741C53.3485 105.736 50.2661 19.5375 63.4944 15.2281Z" fill="#C99D6D"/>
<path fill-rule="evenodd" clip-rule="evenodd" d="M61.1559 19.8467C67.9198 16.8996 78.288 45.5489 67.9198 69.763C65.108 76.3625 75.0703 96.1415 70.5771 98.1127C54.0634 105.34 51.8989 23.8856 61.1559 19.8467Z" fill="#A07747"/>
<path fill-rule="evenodd" clip-rule="evenodd" d="M127.742 58.5256L150.537 111.437L120.804 143.449H79.1577L49.4253 111.437L72.2198 58.5256H127.742Z" fill="#C99D6D"/>
<path d="M81.0679 86.4149C87.3623 84.6694 91.8927 81.1908 91.1868 78.6452C90.4808 76.0997 84.8058 75.4512 78.5114 77.1967C72.2169 78.9423 67.6866 82.4209 68.3925 84.9664C69.0985 87.512 74.7734 88.1605 81.0679 86.4149Z" fill="#A07747"/>
<path d="M130.775 84.9691C131.481 82.4235 126.95 78.9449 120.656 77.1994C114.361 75.4538 108.686 76.1023 107.98 78.6479C107.274 81.1934 111.805 84.672 118.099 86.4176C124.394 88.1631 130.069 87.5146 130.775 84.9691Z" fill="#A07747"/>
<path d="M81.4477 92.5087C84.6924 92.5087 87.3227 89.8784 87.3227 86.6338C87.3227 83.3891 84.6924 80.7588 81.4477 80.7588C78.2031 80.7588 75.5728 83.3891 75.5728 86.6338C75.5728 89.8784 78.2031 92.5087 81.4477 92.5087Z" fill="black"/>
<path d="M83.9796 86.0445C85.1377 86.0445 86.0765 85.1057 86.0765 83.9477C86.0765 82.7896 85.1377 81.8508 83.9796 81.8508C82.8216 81.8508 81.8828 82.7896 81.8828 83.9477C81.8828 85.1057 82.8216 86.0445 83.9796 86.0445Z" fill="white"/>
<path d="M118.515 92.5087C121.759 92.5087 124.39 89.8784 124.39 86.6338C124.39 83.3891 121.759 80.7588 118.515 80.7588C115.27 80.7588 112.64 83.3891 112.64 86.6338C112.64 89.8784 115.27 92.5087 118.515 92.5087Z" fill="black"/>
<path d="M121.056 86.0445C122.214 86.0445 123.153 85.1057 123.153 83.9477C123.153 82.7896 122.214 81.8508 121.056 81.8508C119.898 81.8508 118.959 82.7896 118.959 83.9477C118.959 85.1057 119.898 86.0445 121.056 86.0445Z" fill="white"/>
<path fill-rule="evenodd" clip-rule="evenodd" d="M120.804 143.449L150.537 111.437L100.831 87.8801L49.4253 111.437L79.1577 143.449H120.804Z" fill="#E1C19E"/>
<path fill-rule="evenodd" clip-rule="evenodd" d="M117.287 143.449L122.379 126.279L127.462 109.109L114.147 98.4992L100.831 87.8801L87.516 98.4992L74.2007 109.109L79.293 126.279L84.3756 143.449H100.831H117.287Z" fill="#A07747"/>
<path d="M102.039 115.621H99.6235V143.449H102.039V115.621Z" fill="#755530"/>
<path d="M100.831 122.105C106.942 122.105 111.895 119.202 111.895 115.621C111.895 112.04 106.942 109.138 100.831 109.138C94.721 109.138 89.7676 112.04 89.7676 115.621C89.7676 119.202 94.721 122.105 100.831 122.105Z" fill="#4D4D4D"/>
<path fill-rule="evenodd" clip-rule="evenodd" d="M111.827 116.355C111.402 118.559 109.083 120.433 105.836 121.399C105.614 120.884 105.499 120.328 105.498 119.766C105.494 119.23 105.596 118.698 105.798 118.201C106 117.705 106.298 117.253 106.675 116.871C107.052 116.49 107.501 116.186 107.995 115.978C108.49 115.771 109.02 115.662 109.557 115.66C110.366 115.656 111.158 115.899 111.827 116.355Z" fill="#333333"/>
<path fill-rule="evenodd" clip-rule="evenodd" d="M95.8259 121.399C92.5889 120.433 90.2698 118.568 89.835 116.355C90.5015 115.901 91.2895 115.659 92.096 115.66C92.6324 115.662 93.1629 115.77 93.6573 115.978C94.1517 116.186 94.6002 116.49 94.9772 116.871C95.3542 117.253 95.6522 117.705 95.8542 118.201C96.0562 118.698 96.1582 119.23 96.1544 119.766C96.1563 120.327 96.0445 120.883 95.8259 121.399V121.399Z" fill="#333333"/>
<path opacity="0.15" fill-rule="evenodd" clip-rule="evenodd" d="M100.02 0.00964355C126.536 0.00964355 151.967 10.543 170.717 29.2924C189.467 48.0418 200 73.4715 200 99.9872C200 126.503 189.467 151.933 170.717 170.682C151.967 189.431 126.536 199.965 100.02 199.965V0.00964355Z" fill="black"/>
</svg>
