<svg width="200" height="200" viewBox="0 0 200 200" fill="none" xmlns="http://www.w3.org/2000/svg">
<path fill-rule="evenodd" clip-rule="evenodd" d="M100 199.99C119.779 199.99 139.113 194.125 155.558 183.137C172.003 172.149 184.82 156.532 192.389 138.259C199.957 119.987 201.937 99.881 198.078 80.4836C194.218 61.0861 184.693 43.2687 170.707 29.2845C156.721 15.3003 138.902 5.77749 119.503 1.92025C100.104 -1.937 79.9974 0.0446132 61.725 7.61449C43.4525 15.1844 27.8353 28.0025 16.8483 44.4479C5.86137 60.8933 -0.00191106 80.2273 4.67242e-07 100.005C0.05364 126.508 10.6069 151.91 29.3492 170.649C48.0915 189.389 73.4957 199.939 100 199.99V199.99Z" fill="#57A9AA"/>
<path fill-rule="evenodd" clip-rule="evenodd" d="M137.721 87.8955L156.586 143.948L166.831 174.38C148.5 190.896 124.693 200.021 100.019 199.99V199.99C75.3356 200.029 51.5167 190.902 33.1787 174.38L43.4232 143.948L62.2886 87.8955H137.731H137.721Z" fill="#F4762F"/>
<path fill-rule="evenodd" clip-rule="evenodd" d="M152.421 26.8663C144.574 22.5658 104.098 62.6237 123.737 77.2456C143.375 91.8675 160.279 31.1379 152.421 26.8663Z" fill="#F4762F"/>
<path fill-rule="evenodd" clip-rule="evenodd" d="M152.924 30.1713C148.091 26.6826 134.358 39.8355 138.359 57.5499C139.461 62.382 125.602 78.5212 128.83 80.8503C140.765 89.403 159.592 34.9358 152.924 30.1713Z" fill="#A2450F"/>
<path fill-rule="evenodd" clip-rule="evenodd" d="M48.2653 26.8663C56.113 22.5658 96.5885 62.6237 76.9499 77.2456C57.3114 91.8675 40.4176 31.1379 48.2653 26.8663Z" fill="#F4762F"/>
<path fill-rule="evenodd" clip-rule="evenodd" d="M47.7631 30.1713C52.5955 26.6826 66.3289 39.8355 62.3277 57.5499C61.2259 62.382 75.085 78.5212 71.8474 80.8503C59.9212 89.403 41.0945 34.9358 47.7631 30.1713Z" fill="#A2450F"/>
<path fill-rule="evenodd" clip-rule="evenodd" d="M132.415 47.2964L164.83 103.068L99.9997 143.474L35.1597 103.068L67.5845 47.2964H132.415Z" fill="#F4762F"/>
<path fill-rule="evenodd" clip-rule="evenodd" d="M98.9949 143.474L164.83 103.068C132.415 47.2964 100 47.2964 99.4975 127.673C100 47.2964 74.6207 47.2964 34.1646 103.068L98.9949 143.474Z" fill="#A2450F"/>
<path d="M81.4538 88.3311C84.699 88.3311 87.3299 85.7003 87.3299 82.455C87.3299 79.2097 84.699 76.5789 81.4538 76.5789C78.2085 76.5789 75.5776 79.2097 75.5776 82.455C75.5776 85.7003 78.2085 88.3311 81.4538 88.3311Z" fill="black"/>
<path d="M83.9859 81.8652C85.1441 81.8652 86.0831 80.9263 86.0831 79.768C86.0831 78.6097 85.1441 77.6708 83.9859 77.6708C82.8276 77.6708 81.8887 78.6097 81.8887 79.768C81.8887 80.9263 82.8276 81.8652 83.9859 81.8652Z" fill="white"/>
<path d="M118.537 88.3311C121.783 88.3311 124.413 85.7003 124.413 82.455C124.413 79.2097 121.783 76.5789 118.537 76.5789C115.292 76.5789 112.661 79.2097 112.661 82.455C112.661 85.7003 115.292 88.3311 118.537 88.3311Z" fill="black"/>
<path d="M121.069 81.8652C122.227 81.8652 123.166 80.9263 123.166 79.768C123.166 78.6097 122.227 77.6708 121.069 77.6708C119.911 77.6708 118.972 78.6097 118.972 79.768C118.972 80.9263 119.911 81.8652 121.069 81.8652Z" fill="white"/>
<path fill-rule="evenodd" clip-rule="evenodd" d="M88.5088 116.183C95.6316 112.046 103.692 111.747 110.476 116.183L98.9949 127.674L88.5088 116.183Z" fill="#1A1A1A"/>
<path fill-rule="evenodd" clip-rule="evenodd" d="M98.9949 143.474L164.83 103.068C135.083 89.355 113.878 99.1351 99.4975 127.673C85.1165 99.1351 63.9123 89.355 34.1646 103.068L98.9949 143.474Z" fill="white"/>
<path opacity="0.15" fill-rule="evenodd" clip-rule="evenodd" d="M99.5361 0.00964355C126.058 0.00964355 151.493 10.5448 170.247 29.2976C189 48.0503 199.536 73.4844 199.536 100.005C199.536 126.525 189 151.959 170.247 170.712C151.493 189.465 126.058 200 99.5361 200V0.00964355Z" fill="black"/>
</svg>
