<svg width="200" height="200" viewBox="0 0 200 200" fill="none" xmlns="http://www.w3.org/2000/svg">
<path fill-rule="evenodd" clip-rule="evenodd" d="M100 199.99C119.778 199.99 139.112 194.126 155.557 183.138C172.002 172.151 184.819 156.533 192.388 138.262C199.957 119.99 201.937 99.8843 198.078 80.4872C194.22 61.09 184.696 43.2726 170.711 29.288C156.725 15.3034 138.907 5.77975 119.509 1.92142C100.111 -1.93692 80.0043 0.0433432 61.7317 7.61174C43.459 15.1801 27.8412 27.9968 16.853 44.4409C5.86489 60.885 0 80.218 0 99.9952C0.0510861 126.5 10.6032 151.904 29.3457 170.646C48.0883 189.388 73.494 199.939 100 199.99Z" fill="#57A9AA"/>
<path fill-rule="evenodd" clip-rule="evenodd" d="M129.583 109.06L144.38 157.14L152.943 184.847C137.066 194.743 118.733 199.989 100.024 199.989C81.3157 199.989 62.9821 194.743 47.1055 184.847L55.6393 157.12L70.4069 109.06H129.583V109.06Z" fill="#6A4733"/>
<path fill-rule="evenodd" clip-rule="evenodd" d="M67.6428 21.7542C76.6406 20.9134 97.0909 87.8765 72.9777 94.3998C48.8644 100.923 58.645 22.6046 67.6428 21.7542Z" fill="#84604B"/>
<path fill-rule="evenodd" clip-rule="evenodd" d="M65.8163 25.2526C71.731 23.774 81.7533 68.4418 70.6486 86.7071C67.6042 91.7228 70.7163 94.8829 66.7827 95.8687C52.2761 99.4927 57.698 27.2821 65.8163 25.2526Z" fill="#6A4733"/>
<path fill-rule="evenodd" clip-rule="evenodd" d="M131.816 21.7542C122.818 20.9134 102.368 87.8765 126.491 94.4095C150.614 100.942 140.824 22.6046 131.816 21.7542Z" fill="#84604B"/>
<path fill-rule="evenodd" clip-rule="evenodd" d="M133.613 25.2527C127.699 23.7837 117.676 68.4418 128.781 86.7071C131.825 91.7228 128.713 94.883 132.647 95.8687C147.144 99.4928 141.77 27.2821 133.613 25.2527Z" fill="#6A4733"/>
<path fill-rule="evenodd" clip-rule="evenodd" d="M123.079 60.8749L146.158 96.4197L117.309 188.79H82.6907L53.8418 96.4197L76.9209 60.8749H123.079Z" fill="#84604B"/>
<path d="M75.6646 110.394C78.4508 110.394 80.7095 108.136 80.7095 105.349C80.7095 102.563 78.4508 100.304 75.6646 100.304C72.8783 100.304 70.6196 102.563 70.6196 105.349C70.6196 108.136 72.8783 110.394 75.6646 110.394Z" fill="black"/>
<path d="M77.8386 104.847C78.8314 104.847 79.6363 104.042 79.6363 103.049C79.6363 102.056 78.8314 101.252 77.8386 101.252C76.8458 101.252 76.041 102.056 76.041 103.049C76.041 104.042 76.8458 104.847 77.8386 104.847Z" fill="white"/>
<path d="M124.326 110.394C127.112 110.394 129.371 108.136 129.371 105.349C129.371 102.563 127.112 100.304 124.326 100.304C121.539 100.304 119.281 102.563 119.281 105.349C119.281 108.136 121.539 110.394 124.326 110.394Z" fill="black"/>
<path d="M126.501 104.847C127.494 104.847 128.298 104.042 128.298 103.049C128.298 102.056 127.494 101.252 126.501 101.252C125.508 101.252 124.703 102.056 124.703 103.049C124.703 104.042 125.508 104.847 126.501 104.847Z" fill="white"/>
<path fill-rule="evenodd" clip-rule="evenodd" d="M124.693 165.151L117.309 188.79H82.6904L75.3066 165.151L86.5756 147.775H113.414L124.693 165.151Z" fill="#E7CCBD"/>
<path d="M86.0451 184.273C87.4253 184.017 87.8742 180.202 87.0478 175.751C86.2213 171.301 84.4325 167.901 83.0523 168.158C81.6721 168.414 81.2232 172.229 82.0496 176.679C82.8761 181.13 84.6649 184.529 86.0451 184.273Z" fill="#84604B"/>
<path d="M117.998 176.756C118.824 172.305 118.376 168.49 116.995 168.234C115.615 167.977 113.826 171.377 113 175.828C112.173 180.278 112.622 184.093 114.003 184.349C115.383 184.606 117.172 181.206 117.998 176.756Z" fill="#84604B"/>
<path fill-rule="evenodd" clip-rule="evenodd" d="M108.949 83.2954L117.908 120.29L106.707 188.789H93.2732L82.0815 120.29L91.089 83.2954C96.5592 91.22 99.3812 101.657 95.9213 115.39C103.17 109.331 108.804 95.6366 108.901 83.2954H108.949Z" fill="#E7CCBD"/>
<path opacity="0.15" fill-rule="evenodd" clip-rule="evenodd" d="M99.9995 0.00976562C126.521 0.00976562 151.957 10.5449 170.71 29.2977C189.464 48.0504 199.999 73.4846 199.999 100.005C199.999 126.525 189.464 151.959 170.71 170.712C151.957 189.465 126.521 200 99.9995 200V0.00976562Z" fill="black"/>
</svg>
