<svg width="200" height="200" viewBox="0 0 200 200" fill="none" xmlns="http://www.w3.org/2000/svg">
<path fill-rule="evenodd" clip-rule="evenodd" d="M99.9903 199.971C119.769 199.973 139.104 194.11 155.55 183.125C171.996 172.14 184.815 156.525 192.385 138.255C199.955 119.985 201.937 99.8811 198.08 80.4852C194.222 61.0893 184.699 43.2727 170.714 29.2885C156.729 15.3043 138.911 5.78069 119.513 1.92194C100.114 -1.9368 80.007 0.0426815 61.7339 7.61006C43.4607 15.1774 27.8423 27.9928 16.8537 44.4355C5.86514 60.8783 9.23709e-08 80.2098 0 99.9854C0.0510778 126.486 10.6018 151.886 29.3423 170.626C48.0828 189.366 73.486 199.917 99.9903 199.971V199.971Z" fill="#57A9AA"/>
<path fill-rule="evenodd" clip-rule="evenodd" d="M137.721 87.8872L156.586 143.934L166.831 174.363C148.503 190.875 124.699 200 100.029 199.971C75.3587 200 51.5551 190.875 33.2271 174.363L43.4716 143.934L62.3369 87.8872H137.789H137.721Z" fill="#333333"/>
<path fill-rule="evenodd" clip-rule="evenodd" d="M125.495 113.108L138.252 156.544L147.482 188.027C132.899 195.909 116.577 200.024 99.9997 200V200C83.4156 200.028 67.0873 195.912 52.498 188.027L61.7374 156.573L74.4851 113.137H125.495V113.108Z" fill="#666666"/>
<path fill-rule="evenodd" clip-rule="evenodd" d="M56.0743 32.7004L82.4104 74.0011L49.4927 81.2485L56.0743 32.7004Z" fill="#333333"/>
<path fill-rule="evenodd" clip-rule="evenodd" d="M143.935 32.7004L117.589 74.0011L150.517 81.2485L143.935 32.7004Z" fill="#333333"/>
<path fill-rule="evenodd" clip-rule="evenodd" d="M148.082 63.4487L154.663 112.035L101.382 128.453L45.3271 112.035L51.9088 63.4487L99.9903 47.7943L148.082 63.4487Z" fill="#333333"/>
<path d="M77.8392 111.147C90.8309 111.147 101.363 100.733 101.363 87.8872C101.363 75.0414 90.8309 64.6278 77.8392 64.6278C64.8474 64.6278 54.3154 75.0414 54.3154 87.8872C54.3154 100.733 64.8474 111.147 77.8392 111.147Z" fill="white"/>
<path d="M122.151 111.147C135.143 111.147 145.675 100.733 145.675 87.8872C145.675 75.0414 135.143 64.6278 122.151 64.6278C109.159 64.6278 98.6274 75.0414 98.6274 87.8872C98.6274 100.733 109.159 111.147 122.151 111.147Z" fill="white"/>
<path fill-rule="evenodd" clip-rule="evenodd" d="M93.7085 101.503C94.7329 86.66 105.499 87.1625 106.273 101.503L99.9905 114.819L93.7085 101.503Z" fill="#F4762F"/>
<path d="M77.839 93.7624C81.0843 93.7624 83.7151 91.132 83.7151 87.8872C83.7151 84.6424 81.0843 82.012 77.839 82.012C74.5937 82.012 71.9629 84.6424 71.9629 87.8872C71.9629 91.132 74.5937 93.7624 77.839 93.7624Z" fill="black"/>
<path d="M80.912 87.627C82.4653 87.627 83.7244 86.3679 83.7244 84.8146C83.7244 83.2614 82.4653 82.0022 80.912 82.0022C79.3588 82.0022 78.0996 83.2614 78.0996 84.8146C78.0996 86.3679 79.3588 87.627 80.912 87.627Z" fill="white"/>
<path d="M122.151 93.7624C125.396 93.7624 128.027 91.132 128.027 87.8872C128.027 84.6424 125.396 82.012 122.151 82.012C118.906 82.012 116.275 84.6424 116.275 87.8872C116.275 91.132 118.906 93.7624 122.151 93.7624Z" fill="black"/>
<path d="M125.225 87.627C126.778 87.627 128.037 86.3679 128.037 84.8146C128.037 83.2614 126.778 82.0022 125.225 82.0022C123.672 82.0022 122.413 83.2614 122.413 84.8146C122.413 86.3679 123.672 87.627 125.225 87.627Z" fill="white"/>
<path fill-rule="evenodd" clip-rule="evenodd" d="M86.3628 143.943C86.8422 144.53 87.1454 145.24 87.2371 145.992C87.3287 146.743 87.2052 147.506 86.8808 148.19C86.5564 148.874 86.0444 149.453 85.4044 149.857C84.7644 150.262 84.0226 150.477 83.2653 150.477C82.508 150.477 81.7662 150.262 81.1262 149.857C80.4862 149.453 79.9743 148.874 79.6499 148.19C79.3255 147.506 79.2019 146.743 79.2936 145.992C79.3853 145.24 79.6884 144.53 80.1678 143.943C80.5431 144.402 81.0156 144.772 81.5513 145.026C82.087 145.28 82.6725 145.412 83.2653 145.412C83.8582 145.412 84.4436 145.28 84.9793 145.026C85.515 144.772 85.9876 144.402 86.3628 143.943V143.943Z" fill="#C3C3C3"/>
<path fill-rule="evenodd" clip-rule="evenodd" d="M98.1831 143.943C98.6625 144.53 98.9657 145.24 99.0574 145.992C99.149 146.743 99.0255 147.506 98.7011 148.19C98.3767 148.874 97.8647 149.453 97.2247 149.857C96.5847 150.262 95.8429 150.477 95.0856 150.477C94.3283 150.477 93.5865 150.262 92.9465 149.857C92.3065 149.453 91.7946 148.874 91.4702 148.19C91.1458 147.506 91.0222 146.743 91.1139 145.992C91.2056 145.24 91.5087 144.53 91.9881 143.943C92.3634 144.402 92.836 144.772 93.3717 145.026C93.9074 145.28 94.4928 145.412 95.0856 145.412C95.6785 145.412 96.2639 145.28 96.7996 145.026C97.3353 144.772 97.8079 144.402 98.1831 143.943V143.943Z" fill="#C3C3C3"/>
<path fill-rule="evenodd" clip-rule="evenodd" d="M110.012 143.943C110.492 144.53 110.795 145.24 110.886 145.992C110.978 146.743 110.855 147.506 110.53 148.19C110.206 148.874 109.694 149.453 109.054 149.857C108.414 150.262 107.672 150.477 106.915 150.477C106.157 150.477 105.416 150.262 104.776 149.857C104.136 149.453 103.624 148.874 103.299 148.19C102.975 147.506 102.851 146.743 102.943 145.992C103.035 145.24 103.338 144.53 103.817 143.943C104.192 144.402 104.665 144.772 105.201 145.026C105.736 145.28 106.322 145.412 106.915 145.412C107.508 145.412 108.093 145.28 108.629 145.026C109.164 144.772 109.637 144.402 110.012 143.943V143.943Z" fill="#C3C3C3"/>
<path fill-rule="evenodd" clip-rule="evenodd" d="M121.832 143.943C122.311 144.53 122.615 145.24 122.706 145.992C122.798 146.743 122.674 147.506 122.35 148.19C122.026 148.874 121.514 149.453 120.874 149.857C120.234 150.262 119.492 150.477 118.735 150.477C117.977 150.477 117.235 150.262 116.595 149.857C115.955 149.453 115.444 148.874 115.119 148.19C114.795 147.506 114.671 146.743 114.763 145.992C114.855 145.24 115.158 144.53 115.637 143.943C116.012 144.402 116.485 144.772 117.021 145.026C117.556 145.28 118.142 145.412 118.735 145.412C119.327 145.412 119.913 145.28 120.449 145.026C120.984 144.772 121.457 144.402 121.832 143.943V143.943Z" fill="#C3C3C3"/>
<path fill-rule="evenodd" clip-rule="evenodd" d="M92.4712 134.406C92.9506 134.992 93.2538 135.703 93.3454 136.454C93.4371 137.206 93.3136 137.968 92.9892 138.653C92.6648 139.337 92.1528 139.915 91.5128 140.32C90.8728 140.725 90.131 140.94 89.3737 140.94C88.6164 140.94 87.8746 140.725 87.2346 140.32C86.5946 139.915 86.0827 139.337 85.7583 138.653C85.4338 137.968 85.3103 137.206 85.402 136.454C85.4937 135.703 85.7968 134.992 86.2762 134.406C86.6515 134.865 87.124 135.235 87.6597 135.489C88.1954 135.743 88.7809 135.874 89.3737 135.874C89.9666 135.874 90.552 135.743 91.0877 135.489C91.6234 135.235 92.096 134.865 92.4712 134.406Z" fill="#C3C3C3"/>
<path fill-rule="evenodd" clip-rule="evenodd" d="M104.301 134.406C104.782 134.992 105.086 135.702 105.179 136.455C105.272 137.207 105.149 137.97 104.825 138.655C104.501 139.34 103.989 139.919 103.349 140.325C102.709 140.73 101.966 140.946 101.208 140.946C100.45 140.946 99.7079 140.73 99.0675 140.325C98.4271 139.919 97.9151 139.34 97.5911 138.655C97.2671 137.97 97.1443 137.207 97.2372 136.455C97.33 135.702 97.6346 134.992 98.1155 134.406C98.4908 134.863 98.9629 135.232 99.4977 135.484C100.032 135.737 100.617 135.869 101.208 135.869C101.8 135.869 102.384 135.737 102.919 135.484C103.454 135.232 103.926 134.863 104.301 134.406V134.406Z" fill="#C3C3C3"/>
<path fill-rule="evenodd" clip-rule="evenodd" d="M116.13 134.406C116.61 134.992 116.913 135.703 117.005 136.454C117.096 137.206 116.973 137.968 116.648 138.653C116.324 139.337 115.812 139.915 115.172 140.32C114.532 140.725 113.79 140.94 113.033 140.94C112.276 140.94 111.534 140.725 110.894 140.32C110.254 139.915 109.742 139.337 109.417 138.653C109.093 137.968 108.969 137.206 109.061 136.454C109.153 135.703 109.456 134.992 109.935 134.406C110.311 134.865 110.783 135.235 111.319 135.489C111.855 135.743 112.44 135.874 113.033 135.874C113.626 135.874 114.211 135.743 114.747 135.489C115.283 135.235 115.755 134.865 116.13 134.406V134.406Z" fill="#C3C3C3"/>
<path fill-rule="evenodd" clip-rule="evenodd" d="M92.4712 154.505C92.9506 155.092 93.2538 155.802 93.3454 156.554C93.4371 157.305 93.3136 158.068 92.9892 158.752C92.6648 159.436 92.1528 160.015 91.5128 160.419C90.8728 160.824 90.131 161.039 89.3737 161.039C88.6164 161.039 87.8746 160.824 87.2346 160.419C86.5946 160.015 86.0827 159.436 85.7583 158.752C85.4338 158.068 85.3103 157.305 85.402 156.554C85.4937 155.802 85.7968 155.092 86.2762 154.505C86.6515 154.964 87.124 155.334 87.6597 155.588C88.1954 155.842 88.7809 155.974 89.3737 155.974C89.9666 155.974 90.552 155.842 91.0877 155.588C91.6234 155.334 92.096 154.964 92.4712 154.505V154.505Z" fill="#C3C3C3"/>
<path fill-rule="evenodd" clip-rule="evenodd" d="M104.301 154.505C104.782 155.091 105.086 155.802 105.179 156.554C105.272 157.306 105.149 158.069 104.825 158.755C104.501 159.44 103.989 160.019 103.349 160.424C102.709 160.83 101.966 161.045 101.208 161.045C100.45 161.045 99.7079 160.83 99.0675 160.424C98.4271 160.019 97.9151 159.44 97.5911 158.755C97.2671 158.069 97.1443 157.306 97.2372 156.554C97.33 155.802 97.6346 155.091 98.1155 154.505C98.4908 154.963 98.9629 155.331 99.4977 155.584C100.032 155.837 100.617 155.968 101.208 155.968C101.8 155.968 102.384 155.837 102.919 155.584C103.454 155.331 103.926 154.963 104.301 154.505V154.505Z" fill="#C3C3C3"/>
<path fill-rule="evenodd" clip-rule="evenodd" d="M116.13 154.505C116.61 155.092 116.913 155.802 117.005 156.554C117.096 157.305 116.973 158.068 116.648 158.752C116.324 159.436 115.812 160.015 115.172 160.419C114.532 160.824 113.79 161.039 113.033 161.039C112.276 161.039 111.534 160.824 110.894 160.419C110.254 160.015 109.742 159.436 109.417 158.752C109.093 158.068 108.969 157.305 109.061 156.554C109.153 155.802 109.456 155.092 109.935 154.505C110.311 154.964 110.783 155.334 111.319 155.588C111.855 155.842 112.44 155.974 113.033 155.974C113.626 155.974 114.211 155.842 114.747 155.588C115.283 155.334 115.755 154.964 116.13 154.505V154.505Z" fill="#C3C3C3"/>
<path fill-rule="evenodd" clip-rule="evenodd" d="M127.95 154.505C128.43 155.092 128.733 155.802 128.824 156.554C128.916 157.305 128.793 158.068 128.468 158.752C128.144 159.436 127.632 160.015 126.992 160.419C126.352 160.824 125.61 161.039 124.853 161.039C124.095 161.039 123.354 160.824 122.714 160.419C122.074 160.015 121.562 159.436 121.237 158.752C120.913 158.068 120.789 157.305 120.881 156.554C120.973 155.802 121.276 155.092 121.755 154.505C122.13 154.964 122.603 155.334 123.139 155.588C123.674 155.842 124.26 155.974 124.853 155.974C125.446 155.974 126.031 155.842 126.567 155.588C127.102 155.334 127.575 154.964 127.95 154.505V154.505Z" fill="#C3C3C3"/>
<path fill-rule="evenodd" clip-rule="evenodd" d="M80.6612 154.505C81.1406 155.092 81.4437 155.802 81.5354 156.554C81.6271 157.305 81.5035 158.068 81.1791 158.752C80.8547 159.436 80.3428 160.015 79.7027 160.419C79.0627 160.824 78.321 161.039 77.5637 161.039C76.8063 161.039 76.0646 160.824 75.4246 160.419C74.7846 160.015 74.2726 159.436 73.9482 158.752C73.6238 158.068 73.5002 157.305 73.5919 156.554C73.6836 155.802 73.9868 155.092 74.4661 154.505C74.8414 154.964 75.314 155.334 75.8497 155.588C76.3854 155.842 76.9708 155.974 77.5637 155.974C78.1565 155.974 78.7419 155.842 79.2776 155.588C79.8133 155.334 80.2859 154.964 80.6612 154.505V154.505Z" fill="#C3C3C3"/>
<path fill-rule="evenodd" clip-rule="evenodd" d="M86.3628 164.71C86.8422 165.296 87.1454 166.006 87.2371 166.758C87.3287 167.51 87.2052 168.272 86.8808 168.957C86.5564 169.641 86.0444 170.219 85.4044 170.624C84.7644 171.029 84.0226 171.244 83.2653 171.244C82.508 171.244 81.7662 171.029 81.1262 170.624C80.4862 170.219 79.9743 169.641 79.6499 168.957C79.3255 168.272 79.2019 167.51 79.2936 166.758C79.3853 166.006 79.6884 165.296 80.1678 164.71C80.5431 165.169 81.0156 165.539 81.5513 165.793C82.087 166.047 82.6725 166.178 83.2653 166.178C83.8582 166.178 84.4436 166.047 84.9793 165.793C85.515 165.539 85.9876 165.169 86.3628 164.71Z" fill="#C3C3C3"/>
<path fill-rule="evenodd" clip-rule="evenodd" d="M98.1831 164.71C98.6625 165.296 98.9657 166.006 99.0574 166.758C99.149 167.51 99.0255 168.272 98.7011 168.957C98.3767 169.641 97.8647 170.219 97.2247 170.624C96.5847 171.029 95.8429 171.244 95.0856 171.244C94.3283 171.244 93.5865 171.029 92.9465 170.624C92.3065 170.219 91.7946 169.641 91.4702 168.957C91.1458 168.272 91.0222 167.51 91.1139 166.758C91.2056 166.006 91.5087 165.296 91.9881 164.71C92.3634 165.169 92.836 165.539 93.3717 165.793C93.9074 166.047 94.4928 166.178 95.0856 166.178C95.6785 166.178 96.2639 166.047 96.7996 165.793C97.3353 165.539 97.8079 165.169 98.1831 164.71V164.71Z" fill="#C3C3C3"/>
<path fill-rule="evenodd" clip-rule="evenodd" d="M110.012 164.71C110.492 165.296 110.795 166.006 110.886 166.758C110.978 167.51 110.855 168.272 110.53 168.957C110.206 169.641 109.694 170.219 109.054 170.624C108.414 171.029 107.672 171.244 106.915 171.244C106.157 171.244 105.416 171.029 104.776 170.624C104.136 170.219 103.624 169.641 103.299 168.957C102.975 168.272 102.851 167.51 102.943 166.758C103.035 166.006 103.338 165.296 103.817 164.71C104.192 165.169 104.665 165.539 105.201 165.793C105.736 166.047 106.322 166.178 106.915 166.178C107.508 166.178 108.093 166.047 108.629 165.793C109.164 165.539 109.637 165.169 110.012 164.71V164.71Z" fill="#C3C3C3"/>
<path fill-rule="evenodd" clip-rule="evenodd" d="M121.832 164.71C122.311 165.296 122.615 166.006 122.706 166.758C122.798 167.51 122.674 168.272 122.35 168.957C122.026 169.641 121.514 170.219 120.874 170.624C120.234 171.029 119.492 171.244 118.735 171.244C117.977 171.244 117.235 171.029 116.595 170.624C115.955 170.219 115.444 169.641 115.119 168.957C114.795 168.272 114.671 167.51 114.763 166.758C114.855 166.006 115.158 165.296 115.637 164.71C116.012 165.169 116.485 165.539 117.021 165.793C117.556 166.047 118.142 166.178 118.735 166.178C119.327 166.178 119.913 166.047 120.449 165.793C120.984 165.539 121.457 165.169 121.832 164.71Z" fill="#C3C3C3"/>
<path fill-rule="evenodd" clip-rule="evenodd" d="M74.5435 164.71C75.0229 165.296 75.326 166.006 75.4177 166.758C75.5094 167.51 75.3859 168.272 75.0614 168.957C74.737 169.641 74.2251 170.219 73.5851 170.624C72.9451 171.029 72.2033 171.244 71.446 171.244C70.6887 171.244 69.9469 171.029 69.3069 170.624C68.6669 170.219 68.1549 169.641 67.8305 168.957C67.5061 168.272 67.3826 167.51 67.4743 166.758C67.5659 166.006 67.8691 165.296 68.3485 164.71C68.7237 165.169 69.1963 165.539 69.732 165.793C70.2677 166.047 70.8531 166.178 71.446 166.178C72.0388 166.178 72.6243 166.047 73.16 165.793C73.6957 165.539 74.1682 165.169 74.5435 164.71V164.71Z" fill="#C3C3C3"/>
<path fill-rule="evenodd" clip-rule="evenodd" d="M133.652 164.71C134.131 165.296 134.434 166.006 134.526 166.758C134.618 167.51 134.494 168.272 134.17 168.957C133.845 169.641 133.333 170.219 132.693 170.624C132.053 171.029 131.312 171.244 130.554 171.244C129.797 171.244 129.055 171.029 128.415 170.624C127.775 170.219 127.263 169.641 126.939 168.957C126.615 168.272 126.491 167.51 126.583 166.758C126.674 166.006 126.977 165.296 127.457 164.71C127.832 165.169 128.305 165.539 128.84 165.793C129.376 166.047 129.962 166.178 130.554 166.178C131.147 166.178 131.733 166.047 132.268 165.793C132.804 165.539 133.277 165.169 133.652 164.71Z" fill="#C3C3C3"/>
<path fill-rule="evenodd" clip-rule="evenodd" d="M92.4712 175.726C92.9506 176.312 93.2538 177.022 93.3454 177.774C93.4371 178.526 93.3136 179.288 92.9892 179.973C92.6648 180.657 92.1528 181.235 91.5128 181.64C90.8728 182.045 90.131 182.26 89.3737 182.26C88.6164 182.26 87.8746 182.045 87.2346 181.64C86.5946 181.235 86.0827 180.657 85.7583 179.973C85.4338 179.288 85.3103 178.526 85.402 177.774C85.4937 177.022 85.7968 176.312 86.2762 175.726C86.6515 176.185 87.124 176.555 87.6597 176.809C88.1954 177.063 88.7809 177.194 89.3737 177.194C89.9666 177.194 90.552 177.063 91.0877 176.809C91.6234 176.555 92.096 176.185 92.4712 175.726Z" fill="#C3C3C3"/>
<path fill-rule="evenodd" clip-rule="evenodd" d="M104.301 175.726C104.782 176.312 105.086 177.022 105.179 177.774C105.272 178.527 105.149 179.29 104.825 179.975C104.501 180.66 103.989 181.239 103.349 181.645C102.709 182.05 101.966 182.266 101.208 182.266C100.45 182.266 99.7079 182.05 99.0675 181.645C98.4271 181.239 97.9151 180.66 97.5911 179.975C97.2671 179.29 97.1443 178.527 97.2372 177.774C97.33 177.022 97.6346 176.312 98.1155 175.726C98.4908 176.183 98.9629 176.551 99.4977 176.804C100.032 177.057 100.617 177.188 101.208 177.188C101.8 177.188 102.384 177.057 102.919 176.804C103.454 176.551 103.926 176.183 104.301 175.726V175.726Z" fill="#C3C3C3"/>
<path fill-rule="evenodd" clip-rule="evenodd" d="M116.13 175.726C116.61 176.312 116.913 177.022 117.005 177.774C117.096 178.526 116.973 179.288 116.648 179.973C116.324 180.657 115.812 181.235 115.172 181.64C114.532 182.045 113.79 182.26 113.033 182.26C112.276 182.26 111.534 182.045 110.894 181.64C110.254 181.235 109.742 180.657 109.417 179.973C109.093 179.288 108.969 178.526 109.061 177.774C109.153 177.022 109.456 176.312 109.935 175.726C110.311 176.185 110.783 176.555 111.319 176.809C111.855 177.063 112.44 177.194 113.033 177.194C113.626 177.194 114.211 177.063 114.747 176.809C115.283 176.555 115.755 176.185 116.13 175.726V175.726Z" fill="#C3C3C3"/>
<path fill-rule="evenodd" clip-rule="evenodd" d="M127.95 175.726C128.43 176.312 128.733 177.022 128.824 177.774C128.916 178.526 128.793 179.288 128.468 179.973C128.144 180.657 127.632 181.235 126.992 181.64C126.352 182.045 125.61 182.26 124.853 182.26C124.095 182.26 123.354 182.045 122.714 181.64C122.074 181.235 121.562 180.657 121.237 179.973C120.913 179.288 120.789 178.526 120.881 177.774C120.973 177.022 121.276 176.312 121.755 175.726C122.13 176.185 122.603 176.555 123.139 176.809C123.674 177.063 124.26 177.194 124.853 177.194C125.446 177.194 126.031 177.063 126.567 176.809C127.102 176.555 127.575 176.185 127.95 175.726Z" fill="#C3C3C3"/>
<path fill-rule="evenodd" clip-rule="evenodd" d="M80.6612 175.726C81.1406 176.312 81.4437 177.022 81.5354 177.774C81.6271 178.526 81.5035 179.288 81.1791 179.973C80.8547 180.657 80.3428 181.235 79.7027 181.64C79.0627 182.045 78.321 182.26 77.5637 182.26C76.8063 182.26 76.0646 182.045 75.4246 181.64C74.7846 181.235 74.2726 180.657 73.9482 179.973C73.6238 179.288 73.5002 178.526 73.5919 177.774C73.6836 177.022 73.9868 176.312 74.4661 175.726C74.8414 176.185 75.314 176.555 75.8497 176.809C76.3854 177.063 76.9708 177.194 77.5637 177.194C78.1565 177.194 78.7419 177.063 79.2776 176.809C79.8133 176.555 80.2859 176.185 80.6612 175.726V175.726Z" fill="#C3C3C3"/>
<path fill-rule="evenodd" clip-rule="evenodd" d="M86.3628 186.935C86.8422 187.522 87.1454 188.232 87.2371 188.984C87.3287 189.735 87.2052 190.498 86.8808 191.182C86.5564 191.866 86.0444 192.445 85.4044 192.849C84.7644 193.254 84.0226 193.469 83.2653 193.469C82.508 193.469 81.7662 193.254 81.1262 192.849C80.4862 192.445 79.9743 191.866 79.6499 191.182C79.3255 190.498 79.2019 189.735 79.2936 188.984C79.3853 188.232 79.6884 187.522 80.1678 186.935C80.5431 187.394 81.0156 187.764 81.5513 188.018C82.087 188.272 82.6725 188.404 83.2653 188.404C83.8582 188.404 84.4436 188.272 84.9793 188.018C85.515 187.764 85.9876 187.394 86.3628 186.935Z" fill="#C3C3C3"/>
<path fill-rule="evenodd" clip-rule="evenodd" d="M98.1831 186.935C98.6625 187.522 98.9657 188.232 99.0574 188.984C99.149 189.735 99.0255 190.498 98.7011 191.182C98.3767 191.866 97.8647 192.445 97.2247 192.849C96.5847 193.254 95.8429 193.469 95.0856 193.469C94.3283 193.469 93.5865 193.254 92.9465 192.849C92.3065 192.445 91.7946 191.866 91.4702 191.182C91.1458 190.498 91.0222 189.735 91.1139 188.984C91.2056 188.232 91.5087 187.522 91.9881 186.935C92.3634 187.394 92.836 187.764 93.3717 188.018C93.9074 188.272 94.4928 188.404 95.0856 188.404C95.6785 188.404 96.2639 188.272 96.7996 188.018C97.3353 187.764 97.8079 187.394 98.1831 186.935V186.935Z" fill="#C3C3C3"/>
<path fill-rule="evenodd" clip-rule="evenodd" d="M110.012 186.935C110.492 187.522 110.795 188.232 110.886 188.984C110.978 189.735 110.855 190.498 110.53 191.182C110.206 191.866 109.694 192.445 109.054 192.849C108.414 193.254 107.672 193.469 106.915 193.469C106.157 193.469 105.416 193.254 104.776 192.849C104.136 192.445 103.624 191.866 103.299 191.182C102.975 190.498 102.851 189.735 102.943 188.984C103.035 188.232 103.338 187.522 103.817 186.935C104.192 187.394 104.665 187.764 105.201 188.018C105.736 188.272 106.322 188.404 106.915 188.404C107.508 188.404 108.093 188.272 108.629 188.018C109.164 187.764 109.637 187.394 110.012 186.935V186.935Z" fill="#C3C3C3"/>
<path fill-rule="evenodd" clip-rule="evenodd" d="M121.832 186.935C122.311 187.522 122.615 188.232 122.706 188.984C122.798 189.735 122.674 190.498 122.35 191.182C122.026 191.866 121.514 192.445 120.874 192.849C120.234 193.254 119.492 193.469 118.735 193.469C117.977 193.469 117.235 193.254 116.595 192.849C115.955 192.445 115.444 191.866 115.119 191.182C114.795 190.498 114.671 189.735 114.763 188.984C114.855 188.232 115.158 187.522 115.637 186.935C116.012 187.394 116.485 187.764 117.021 188.018C117.556 188.272 118.142 188.404 118.735 188.404C119.327 188.404 119.913 188.272 120.449 188.018C120.984 187.764 121.457 187.394 121.832 186.935Z" fill="#C3C3C3"/>
<path opacity="0.15" fill-rule="evenodd" clip-rule="evenodd" d="M99.9902 0C126.512 0 151.947 10.5341 170.701 29.285C189.455 48.0359 199.99 73.4676 199.99 99.9854C199.99 126.503 189.455 151.935 170.701 170.686C151.947 189.437 126.512 199.971 99.9902 199.971V0Z" fill="black"/>
</svg>
