<svg width="200" height="200" viewBox="0 0 200 200" fill="none" xmlns="http://www.w3.org/2000/svg">
<path fill-rule="evenodd" clip-rule="evenodd" d="M100 199.99C119.779 199.99 139.113 194.125 155.558 183.137C172.003 172.149 184.82 156.532 192.389 138.259C199.957 119.987 201.937 99.881 198.078 80.4836C194.218 61.0861 184.693 43.2687 170.707 29.2845C156.721 15.3003 138.902 5.77749 119.503 1.92025C100.104 -1.937 79.9974 0.0446132 61.7249 7.61449C43.4525 15.1844 27.8353 28.0025 16.8483 44.4479C5.86136 60.8933 -0.00191106 80.2273 4.67243e-07 100.005C0.05364 126.508 10.6069 151.91 29.3491 170.649C48.0914 189.389 73.4957 199.939 100 199.99Z" fill="#F4762F"/>
<path fill-rule="evenodd" clip-rule="evenodd" d="M137.721 87.8956L156.587 143.948L166.831 174.38C148.501 190.896 124.693 200.021 100.02 199.99V199.99C75.3459 200.021 51.5385 190.896 33.208 174.38L43.4525 143.948L62.3179 87.8956H137.77H137.721Z" fill="#F6A7AA"/>
<path fill-rule="evenodd" clip-rule="evenodd" d="M128.897 71.3506L137.412 67.9295L145.917 64.4987L148.526 44.3006L128.124 42.5514L123.012 50.1668L117.899 57.7821L123.398 64.5664L128.897 71.3506Z" fill="#FFD7DA"/>
<path fill-rule="evenodd" clip-rule="evenodd" d="M129.893 66.5862L135.585 64.2957L141.278 61.9957L142.737 48.3499L129.381 47.3158L125.959 52.4185L122.538 57.5115L126.22 62.044L129.893 66.5862Z" fill="#F6A7AA"/>
<path fill-rule="evenodd" clip-rule="evenodd" d="M71.6733 71.3506L63.1588 67.9198L54.6442 64.4987L52.0444 44.3006L72.4465 42.5514L77.5591 50.1668L82.662 57.7821L77.1725 64.5664L71.6733 71.3506Z" fill="#FFD7DA"/>
<path fill-rule="evenodd" clip-rule="evenodd" d="M70.6676 66.5862L64.9752 64.2957L59.2827 61.9957L57.833 48.3499L71.1895 47.3158L74.6108 52.4185L78.0321 57.5115L74.3499 62.044L70.6676 66.5862Z" fill="#F6A7AA"/>
<path fill-rule="evenodd" clip-rule="evenodd" d="M132.638 56.9508L142.718 84.1361L152.808 111.312L126.404 128.118L100 144.914L73.5869 128.118L47.1831 111.312L57.273 84.1361L67.3532 56.9508H100H132.638Z" fill="#FFD7DA"/>
<path d="M77.317 92.5251C80.5623 92.5251 83.1931 89.8943 83.1931 86.6491C83.1931 83.4038 80.5623 80.7729 77.317 80.7729C74.0717 80.7729 71.4409 83.4038 71.4409 86.6491C71.4409 89.8943 74.0717 92.5251 77.317 92.5251Z" fill="black"/>
<path d="M79.8497 86.0596C81.0079 86.0596 81.9469 85.1206 81.9469 83.9624C81.9469 82.8041 81.0079 81.8651 79.8497 81.8651C78.6914 81.8651 77.7524 82.8041 77.7524 83.9624C77.7524 85.1206 78.6914 86.0596 79.8497 86.0596Z" fill="white"/>
<path d="M122.673 92.5251C125.919 92.5251 128.55 89.8943 128.55 86.6491C128.55 83.4038 125.919 80.7729 122.673 80.7729C119.428 80.7729 116.797 83.4038 116.797 86.6491C116.797 89.8943 119.428 92.5251 122.673 92.5251Z" fill="black"/>
<path d="M125.205 86.0596C126.363 86.0596 127.302 85.1206 127.302 83.9624C127.302 82.8041 126.363 81.8651 125.205 81.8651C124.047 81.8651 123.108 82.8041 123.108 83.9624C123.108 85.1206 124.047 86.0596 125.205 86.0596Z" fill="white"/>
<path d="M99.9997 125.866C113.926 125.866 125.215 117.122 125.215 106.335C125.215 95.548 113.926 86.8036 99.9997 86.8036C86.0738 86.8036 74.7847 95.548 74.7847 106.335C74.7847 117.122 86.0738 125.866 99.9997 125.866Z" fill="#F6A7AA"/>
<path d="M92.1232 111.177C94.7974 111.177 96.9652 109.009 96.9652 106.335C96.9652 103.661 94.7974 101.493 92.1232 101.493C89.4491 101.493 87.2812 103.661 87.2812 106.335C87.2812 109.009 89.4491 111.177 92.1232 111.177Z" fill="#FFD7DA"/>
<path d="M107.867 111.177C110.541 111.177 112.709 109.009 112.709 106.335C112.709 103.661 110.541 101.493 107.867 101.493C105.193 101.493 103.025 103.661 103.025 106.335C103.025 109.009 105.193 111.177 107.867 111.177Z" fill="#FFD7DA"/>
<path opacity="0.15" fill-rule="evenodd" clip-rule="evenodd" d="M99.9995 0.00964355C126.521 0.00964355 151.957 10.5448 170.71 29.2976C189.464 48.0503 200 73.4844 200 100.005C200 126.525 189.464 151.959 170.71 170.712C151.957 189.465 126.521 200 99.9995 200V0.00964355Z" fill="black"/>
</svg>
