<svg width="200" height="200" viewBox="0 0 200 200" fill="none" xmlns="http://www.w3.org/2000/svg">
<path fill-rule="evenodd" clip-rule="evenodd" d="M100.02 199.99C119.792 199.983 139.119 194.112 155.555 183.119C171.992 172.127 184.801 156.507 192.362 138.235C199.924 119.962 201.898 99.858 198.036 80.4634C194.174 61.0688 184.649 43.255 170.664 29.2743C156.68 15.2936 138.865 5.7738 119.472 1.9186C100.079 -1.9366 79.9778 0.04588 61.711 7.61541C43.4441 15.1849 27.8315 28.0016 16.8472 44.4448C5.86283 60.8881 1.4775e-06 80.2196 0 99.9952C0.051107 126.507 10.6065 151.917 29.3539 170.66C48.1012 189.402 73.512 199.949 100.02 199.99V199.99Z" fill="#F4762F"/>
<path fill-rule="evenodd" clip-rule="evenodd" d="M137.704 87.8956L156.566 143.948L166.808 174.38C148.483 190.893 124.685 200.018 100.019 199.99V199.99C75.3535 200.019 51.5545 190.893 33.23 174.38L43.4725 143.948L62.3343 87.8956H137.704Z" fill="#B2B2B2"/>
<path fill-rule="evenodd" clip-rule="evenodd" d="M125.481 98.9129L138.236 149.456L147.899 187.785C133.219 195.814 116.751 200.012 100.02 199.99V199.99C83.2804 200.012 66.8061 195.811 52.1211 187.775L61.7839 149.447L74.5291 98.9032H125.529L125.481 98.9129Z" fill="#E5E5E5"/>
<path fill-rule="evenodd" clip-rule="evenodd" d="M124.36 56.2264L148.73 108.5C113.19 152.955 86.7722 152.955 51.2324 108.5L62.6925 83.9336L75.6116 56.2264H124.36Z" fill="#B2B2B2"/>
<path fill-rule="evenodd" clip-rule="evenodd" d="M155.717 27.1563C148.093 22.4692 105.683 60.4687 124.554 76.0377C129.782 80.3479 146.363 83.9913 143.764 78.8693C139.734 70.935 161.234 30.5484 155.717 27.1563Z" fill="#E5E5E5"/>
<path fill-rule="evenodd" clip-rule="evenodd" d="M156.063 30.4614C151.386 26.7311 125.596 52.3411 128.698 70.2681C129.548 75.1969 126.36 77.3906 129.471 79.8743C132.119 81.9811 145.366 82.0101 143.772 78.9079C140.342 72.1333 160.991 34.4044 156.063 30.4614Z" fill="#B2B2B2"/>
<path fill-rule="evenodd" clip-rule="evenodd" d="M44.072 27.1563C51.696 22.4692 94.106 60.4687 75.2345 76.0377C70.0069 80.3479 53.4256 83.9913 56.0249 78.8693C60.0543 70.935 38.5642 30.5484 44.072 27.1563Z" fill="#E5E5E5"/>
<path fill-rule="evenodd" clip-rule="evenodd" d="M43.7433 30.4614C48.4201 26.7311 74.21 52.3411 71.1083 70.2681C70.2579 75.1969 73.4467 77.3906 70.3353 79.8743C67.6877 81.9811 54.44 82.0101 56.0343 78.9079C59.4356 72.1333 38.7959 34.4044 43.7433 30.4614Z" fill="#B2B2B2"/>
<path fill-rule="evenodd" clip-rule="evenodd" d="M127.742 47.2965L155.503 101.996C115.025 148.471 84.9645 148.471 44.4678 101.996L57.5029 76.2794L72.2096 47.2869H127.732L127.742 47.2965Z" fill="#E5E5E5"/>
<path d="M84.9257 122.368C93.064 122.368 99.6615 118.365 99.6615 113.428C99.6615 108.491 93.064 104.489 84.9257 104.489C76.7874 104.489 70.1899 108.491 70.1899 113.428C70.1899 118.365 76.7874 122.368 84.9257 122.368Z" fill="white"/>
<path d="M114.397 122.368C122.536 122.368 129.133 118.365 129.133 113.428C129.133 108.491 122.536 104.489 114.397 104.489C106.259 104.489 99.6616 108.491 99.6616 113.428C99.6616 118.365 106.259 122.368 114.397 122.368Z" fill="white"/>
<path fill-rule="evenodd" clip-rule="evenodd" d="M77.1958 106.538C88.5786 100.024 93.6226 85.2767 87.3031 69.2535C61.9769 78.3185 68.0645 94.506 77.1958 106.538Z" fill="#B2B2B2"/>
<path fill-rule="evenodd" clip-rule="evenodd" d="M127.743 47.2964C107.876 61.0388 104.91 91.2104 99.6627 113.428C94.7733 90.9301 92.4445 61.2418 72.23 47.2964H127.752H127.743Z" fill="#B2B2B2"/>
<path fill-rule="evenodd" clip-rule="evenodd" d="M122.766 106.538C111.383 100.024 106.339 85.2767 112.659 69.2535C138.883 77.5551 132.641 93.5976 122.766 106.538Z" fill="#B2B2B2"/>
<path fill-rule="evenodd" clip-rule="evenodd" d="M99.8456 110.51C100.536 113.535 102.399 116.163 105.025 117.816C108.762 120.41 113.221 121.763 117.77 121.682C118.648 121.683 119.525 121.638 120.398 121.546C111.315 139.705 88.7238 139.425 79.6504 121.546C80.498 121.631 81.3494 121.673 82.2014 121.672C91.323 121.624 98.7634 116.792 99.8456 110.51Z" fill="#B2B2B2"/>
<path fill-rule="evenodd" clip-rule="evenodd" d="M118.688 83.6339C119.689 83.2758 120.768 83.1993 121.808 83.413C122.849 83.6266 123.811 84.1221 124.589 84.8453C125.367 85.5685 125.932 86.4917 126.221 87.514C126.51 88.5363 126.513 89.6184 126.229 90.6422C125.946 91.6661 125.386 92.5922 124.612 93.3196C123.837 94.047 122.878 94.5476 121.839 94.7668C120.799 94.986 119.72 94.9154 118.718 94.5626C117.716 94.2099 116.83 93.5886 116.157 92.7665C115.605 91.1669 115.552 89.4374 116.004 87.8068C116.456 86.1761 117.392 84.721 118.688 83.6339Z" fill="#D3D3D3"/>
<path fill-rule="evenodd" clip-rule="evenodd" d="M81.2746 83.6336C79.9781 82.547 78.3826 81.8793 76.6987 81.7189C75.0149 81.5584 73.3219 81.9126 71.8437 82.7348C71.2923 84.3342 71.2392 86.0633 71.6912 87.6935C72.1432 89.3237 73.0791 90.7784 74.3753 91.8653C75.6715 92.9523 77.267 93.6203 78.9508 93.7812C80.6347 93.942 82.3277 93.5881 83.8062 92.7662C84.358 91.1666 84.4114 89.4371 83.9594 87.8064C83.5074 86.1758 82.5712 84.7207 81.2746 83.6336Z" fill="#D3D3D3"/>
<path d="M122.137 92.7952C124.923 92.7952 127.181 90.5366 127.181 87.7505C127.181 84.9644 124.923 82.7058 122.137 82.7058C119.352 82.7058 117.093 84.9644 117.093 87.7505C117.093 90.5366 119.352 92.7952 122.137 92.7952Z" fill="#57A9AA"/>
<path d="M124.302 87.2373C125.294 87.2373 126.099 86.4328 126.099 85.4403C126.099 84.4479 125.294 83.6433 124.302 83.6433C123.309 83.6433 122.505 84.4479 122.505 85.4403C122.505 86.4328 123.309 87.2373 124.302 87.2373Z" fill="white"/>
<path d="M122.139 90.9765C122.736 90.9765 123.221 89.5318 123.221 87.7496C123.221 85.9675 122.736 84.5227 122.139 84.5227C121.541 84.5227 121.057 85.9675 121.057 87.7496C121.057 89.5318 121.541 90.9765 122.139 90.9765Z" fill="#333333"/>
<path d="M77.8335 92.7952C80.6192 92.7952 82.8775 90.5366 82.8775 87.7505C82.8775 84.9644 80.6192 82.7058 77.8335 82.7058C75.0478 82.7058 72.7896 84.9644 72.7896 87.7505C72.7896 90.5366 75.0478 92.7952 77.8335 92.7952Z" fill="#57A9AA"/>
<path d="M79.9977 87.2373C80.9902 87.2373 81.7947 86.4328 81.7947 85.4403C81.7947 84.4479 80.9902 83.6433 79.9977 83.6433C79.0052 83.6433 78.2007 84.4479 78.2007 85.4403C78.2007 86.4328 79.0052 87.2373 79.9977 87.2373Z" fill="white"/>
<path d="M77.8238 90.9765C78.4214 90.9765 78.9058 89.5318 78.9058 87.7496C78.9058 85.9675 78.4214 84.5227 77.8238 84.5227C77.2262 84.5227 76.7417 85.9675 76.7417 87.7496C76.7417 89.5318 77.2262 90.9765 77.8238 90.9765Z" fill="#333333"/>
<path fill-rule="evenodd" clip-rule="evenodd" d="M99.8459 110.51C100.536 113.535 102.399 116.163 105.025 117.816C105.883 118.444 106.795 118.994 107.75 119.459C102.778 121.412 97.249 121.395 92.2896 119.411C96.3769 117.391 99.2081 114.192 99.8459 110.51Z" fill="#E5E5E5"/>
<path fill-rule="evenodd" clip-rule="evenodd" d="M92.0962 105.349C95.7391 102.372 103.972 102.102 107.943 105.349L99.6622 113.573L92.0962 105.349Z" fill="#84604B"/>
<path d="M89.1391 111.843C89.2149 111.872 89.2838 111.916 89.3415 111.973C89.3992 112.03 89.4444 112.098 89.4741 112.173C89.5037 112.249 89.5173 112.33 89.5139 112.411C89.5105 112.491 89.4901 112.571 89.4542 112.643C89.4182 112.716 89.3675 112.78 89.3052 112.832C89.2429 112.884 89.1704 112.922 89.0925 112.944C89.0146 112.966 88.9329 112.971 88.8527 112.96C88.7725 112.949 88.6956 112.92 88.627 112.877C80.2687 108.741 70.1421 107.552 60.8464 108.268C49.9661 109.108 40.2744 112.539 35.9358 116.878C35.8818 116.932 35.8178 116.975 35.7474 117.004C35.6769 117.033 35.6014 117.049 35.5251 117.049C35.4488 117.049 35.3733 117.033 35.3029 117.004C35.2324 116.975 35.1684 116.932 35.1144 116.878C35.0605 116.824 35.0177 116.76 34.9885 116.69C34.9594 116.619 34.9443 116.544 34.9443 116.468C34.9443 116.391 34.9594 116.316 34.9885 116.245C35.0177 116.175 35.0605 116.111 35.1144 116.057C39.6366 111.534 49.6086 107.968 60.7595 107.108C70.2387 106.383 80.5779 107.61 89.1391 111.843Z" fill="white"/>
<path d="M87.7382 113.892C87.8137 113.912 87.8845 113.946 87.9464 113.994C88.0083 114.041 88.06 114.1 88.0984 114.168C88.1369 114.236 88.1612 114.311 88.1701 114.388C88.179 114.465 88.1722 114.544 88.1501 114.619C88.128 114.693 88.0911 114.763 88.0416 114.823C87.992 114.883 87.9309 114.933 87.8618 114.969C87.7927 115.004 87.717 115.026 87.6393 115.032C87.5617 115.038 87.4836 115.029 87.4097 115.004C80.1626 112.878 72.1038 112.849 64.5089 114.144C55.6674 115.651 47.4734 118.976 41.8786 122.774C41.8152 122.817 41.7438 122.847 41.6687 122.863C41.5936 122.878 41.5161 122.879 41.4408 122.865C41.3654 122.85 41.2936 122.821 41.2294 122.779C41.1653 122.737 41.1101 122.683 41.0669 122.619C41.0238 122.556 40.9936 122.484 40.978 122.409C40.9624 122.334 40.9618 122.257 40.9761 122.181C40.9905 122.106 41.0195 122.034 41.0617 121.97C41.1038 121.906 41.1581 121.851 41.2215 121.807C46.9323 117.893 55.3099 114.53 64.306 112.994C72.0749 111.66 80.3076 111.689 87.7382 113.892Z" fill="white"/>
<path d="M86.7046 116.105C86.849 116.131 86.9782 116.211 87.066 116.329C87.1539 116.446 87.1939 116.593 87.1779 116.739C87.162 116.885 87.0913 117.019 86.9801 117.115C86.869 117.211 86.7256 117.261 86.5789 117.255C80.0842 116.645 73.5329 117.325 67.3017 119.256C60.4427 121.274 53.9672 124.419 48.1404 128.562C48.0122 128.652 47.8537 128.687 47.6997 128.66C47.5457 128.633 47.4087 128.546 47.319 128.417C47.2293 128.289 47.1942 128.131 47.2214 127.977C47.2486 127.823 47.3358 127.686 47.464 127.596C53.3964 123.376 59.9895 120.172 66.9731 118.115C73.3537 116.152 80.0592 115.469 86.7046 116.105Z" fill="white"/>
<path d="M110.823 111.843C110.747 111.872 110.678 111.916 110.62 111.973C110.562 112.03 110.517 112.098 110.488 112.173C110.458 112.249 110.444 112.33 110.448 112.411C110.451 112.491 110.472 112.571 110.507 112.643C110.543 112.716 110.594 112.78 110.657 112.832C110.719 112.884 110.791 112.922 110.869 112.944C110.947 112.966 111.029 112.971 111.109 112.96C111.189 112.949 111.266 112.92 111.335 112.877C119.693 108.741 129.82 107.552 139.115 108.268C149.996 109.108 159.687 112.539 164.026 116.878C164.08 116.932 164.144 116.975 164.214 117.004C164.285 117.033 164.36 117.049 164.437 117.049C164.513 117.049 164.588 117.033 164.659 117.004C164.729 116.975 164.793 116.932 164.847 116.878C164.901 116.824 164.944 116.76 164.973 116.69C165.002 116.619 165.017 116.544 165.017 116.468C165.017 116.391 165.002 116.316 164.973 116.245C164.944 116.175 164.901 116.111 164.847 116.057C160.325 111.534 150.353 107.968 139.202 107.108C129.723 106.383 119.345 107.61 110.823 111.843Z" fill="white"/>
<path d="M112.224 113.892C112.082 113.94 111.963 114.041 111.894 114.175C111.825 114.308 111.81 114.463 111.852 114.607C111.895 114.751 111.992 114.872 112.122 114.947C112.253 115.021 112.407 115.041 112.552 115.004C119.8 112.878 127.858 112.849 135.453 114.144C144.295 115.651 152.489 118.976 158.084 122.774C158.147 122.817 158.218 122.847 158.293 122.863C158.369 122.878 158.446 122.879 158.521 122.865C158.597 122.85 158.669 122.821 158.733 122.779C158.797 122.737 158.852 122.683 158.895 122.619C158.938 122.556 158.969 122.484 158.984 122.409C159 122.334 159 122.257 158.986 122.181C158.972 122.106 158.943 122.034 158.9 121.97C158.858 121.906 158.804 121.851 158.741 121.807C153.03 117.893 144.662 114.53 135.656 112.994C127.887 111.66 119.655 111.689 112.224 113.892Z" fill="white"/>
<path d="M113.258 116.105C113.113 116.131 112.984 116.211 112.896 116.329C112.808 116.446 112.768 116.593 112.784 116.739C112.8 116.885 112.871 117.019 112.982 117.115C113.093 117.211 113.236 117.261 113.383 117.255C119.878 116.645 126.429 117.325 132.66 119.256C139.519 121.274 145.995 124.419 151.822 128.562C151.885 128.607 151.957 128.638 152.032 128.655C152.108 128.672 152.186 128.674 152.262 128.66C152.339 128.647 152.412 128.618 152.477 128.577C152.542 128.535 152.599 128.481 152.643 128.417C152.687 128.354 152.719 128.282 152.736 128.207C152.752 128.131 152.754 128.053 152.741 127.977C152.727 127.9 152.699 127.828 152.657 127.762C152.616 127.697 152.562 127.64 152.498 127.596C146.566 123.375 139.973 120.171 132.989 118.115C126.608 116.152 119.903 115.469 113.258 116.105Z" fill="white"/>
<path opacity="0.15" fill-rule="evenodd" clip-rule="evenodd" d="M100.019 0.00964355C126.536 0.00964355 151.966 10.5448 170.716 29.2975C189.466 48.0503 200 73.4845 200 100.005C200 126.525 189.466 151.959 170.716 170.712C151.966 189.465 126.536 200 100.019 200V0.00964355Z" fill="black"/>
</svg>
