<svg width="200" height="200" viewBox="0 0 200 200" fill="none" xmlns="http://www.w3.org/2000/svg">
<path fill-rule="evenodd" clip-rule="evenodd" d="M100 200C119.778 200 139.112 194.135 155.557 183.147C172.002 172.159 184.819 156.541 192.388 138.268C199.957 119.996 201.937 99.8891 198.078 80.491C194.22 61.0929 184.696 43.2746 170.711 29.2894C156.725 15.3041 138.907 5.78004 119.509 1.92152C100.111 -1.937 80.0043 0.0433292 61.7317 7.61209C43.4591 15.1809 27.8412 27.9981 16.8531 44.443C5.86492 60.8879 0 80.2219 0 100C0.0510861 126.506 10.6032 151.912 29.3458 170.654C48.0883 189.397 73.4941 199.949 100 200V200Z" fill="#F6A7AA"/>
<path fill-rule="evenodd" clip-rule="evenodd" d="M137.721 87.9L156.586 143.955L166.831 174.389C148.502 190.902 124.699 200.028 100.029 200V200C75.3407 200.038 51.5177 190.908 33.1787 174.379L43.4232 143.945L62.2886 87.8904H137.731L137.721 87.9Z" fill="#6A4733"/>
<path fill-rule="evenodd" clip-rule="evenodd" d="M100 123.949C122.799 123.949 141.848 151.619 146.477 188.547C132.172 196.071 116.25 199.999 100.087 199.99H100C83.837 199.999 67.915 196.071 53.6099 188.547C58.1426 151.628 77.1916 123.949 100 123.949Z" fill="#E7CCBD"/>
<path fill-rule="evenodd" clip-rule="evenodd" d="M127.757 47.2892L141.645 71.3348L155.523 95.3804L141.645 119.426L127.757 143.472H99.9998H72.2333L58.3452 119.426L44.4668 95.3804L58.3452 71.3348L72.2333 47.2892H99.9998H127.757Z" fill="#6A4733"/>
<path fill-rule="evenodd" clip-rule="evenodd" d="M99.9999 70.8418C112.1 70.8418 122.006 101.421 122.857 140.186H77.1333C77.9935 101.421 87.8997 70.8418 99.9999 70.8418Z" fill="#E7CCBD"/>
<path fill-rule="evenodd" clip-rule="evenodd" d="M89.0112 125.08C99.8743 119.407 100.28 120.653 110.979 125.08L99.4973 140.186L89.0112 125.08Z" fill="#F4762F"/>
<path d="M77.839 93.776C81.0843 93.776 83.7151 91.1452 83.7151 87.8999C83.7151 84.6546 81.0843 82.0238 77.839 82.0238C74.5937 82.0238 71.9629 84.6546 71.9629 87.8999C71.9629 91.1452 74.5937 93.776 77.839 93.776Z" fill="black"/>
<path d="M80.3712 87.3006C81.5295 87.3006 82.4684 86.3617 82.4684 85.2034C82.4684 84.0452 81.5295 83.1062 80.3712 83.1062C79.2129 83.1062 78.2739 84.0452 78.2739 85.2034C78.2739 86.3617 79.2129 87.3006 80.3712 87.3006Z" fill="white"/>
<path d="M122.152 93.776C125.397 93.776 128.028 91.1452 128.028 87.8999C128.028 84.6546 125.397 82.0238 122.152 82.0238C118.906 82.0238 116.275 84.6546 116.275 87.8999C116.275 91.1452 118.906 93.776 122.152 93.776Z" fill="black"/>
<path d="M124.683 87.3006C125.841 87.3006 126.78 86.3617 126.78 85.2034C126.78 84.0452 125.841 83.1062 124.683 83.1062C123.525 83.1062 122.586 84.0452 122.586 85.2034C122.586 86.3617 123.525 87.3006 124.683 87.3006Z" fill="white"/>
<path d="M72.2333 63.1391C80.987 63.1391 88.0833 56.0428 88.0833 47.2891C88.0833 38.5354 80.987 31.4391 72.2333 31.4391C63.4796 31.4391 56.3833 38.5354 56.3833 47.2891C56.3833 56.0428 63.4796 63.1391 72.2333 63.1391Z" fill="#6A4733"/>
<path d="M127.757 63.1391C136.51 63.1391 143.607 56.0428 143.607 47.2891C143.607 38.5354 136.51 31.4391 127.757 31.4391C119.003 31.4391 111.907 38.5354 111.907 47.2891C111.907 56.0428 119.003 63.1391 127.757 63.1391Z" fill="#6A4733"/>
<path opacity="0.15" fill-rule="evenodd" clip-rule="evenodd" d="M99.5366 0C126.058 0 151.494 10.5357 170.247 29.2893C189.001 48.0429 199.537 73.4783 199.537 100C199.537 126.522 189.001 151.957 170.247 170.711C151.494 189.464 126.058 200 99.5366 200V0Z" fill="black"/>
</svg>
