<svg width="200" height="200" viewBox="0 0 200 200" fill="none" xmlns="http://www.w3.org/2000/svg">
<path fill-rule="evenodd" clip-rule="evenodd" d="M100 199.99C119.778 199.99 139.112 194.126 155.557 183.138C172.002 172.15 184.819 156.533 192.388 138.262C199.957 119.99 201.937 99.8842 198.078 80.4871C194.22 61.0899 184.696 43.2725 170.711 29.288C156.725 15.3034 138.907 5.77975 119.509 1.92142C100.111 -1.93692 80.0043 0.0433432 61.7317 7.61173C43.4591 15.1801 27.8412 27.9967 16.8531 44.4408C5.86492 60.8849 0 80.218 0 99.9951C0.0510861 126.5 10.6032 151.904 29.3458 170.646C48.0883 189.388 73.4941 199.939 100 199.99V199.99Z" fill="#F6A7AA"/>
<path fill-rule="evenodd" clip-rule="evenodd" d="M137.721 87.8958L156.586 143.948L166.831 174.38C148.502 190.893 124.699 200.018 100.029 199.99C75.342 200.031 51.5191 190.905 33.1787 174.38L43.4232 143.948L62.2886 87.8958H137.731H137.721Z" fill="#333333"/>
<path fill-rule="evenodd" clip-rule="evenodd" d="M127.766 50.7466L148.449 70.8287L155.523 98.8355L148.478 126.794L127.757 146.924L100.029 154.801L72.2333 146.924L51.551 126.852L44.4668 98.8355L51.5123 70.8867L72.2333 50.7466L99.9611 42.88L127.766 50.7466Z" fill="#333333"/>
<path fill-rule="evenodd" clip-rule="evenodd" d="M125.505 98.9127L138.262 149.456L147.927 187.784C133.239 195.82 116.762 200.021 100.019 200C83.277 200.021 66.7996 195.82 52.1118 187.784L61.7765 149.456L74.5241 98.9127H125.534H125.505Z" fill="white"/>
<path fill-rule="evenodd" clip-rule="evenodd" d="M80.6709 109.215C95.2645 109.215 93.9791 90.5535 100.203 90.5535C106.862 90.5535 103.557 109.215 119.329 109.215L99.1207 124.32L80.6709 109.215Z" fill="#F4762F"/>
<path d="M77.839 111.785C88.8025 111.785 97.6901 101.089 97.6901 87.8955C97.6901 74.7015 88.8025 64.0057 77.839 64.0057C66.8755 64.0057 57.9878 74.7015 57.9878 87.8955C57.9878 101.089 66.8755 111.785 77.839 111.785Z" fill="white"/>
<path d="M122.151 111.785C133.115 111.785 142.003 101.089 142.003 87.8955C142.003 74.7015 133.115 64.0057 122.151 64.0057C111.188 64.0057 102.3 74.7015 102.3 87.8955C102.3 101.089 111.188 111.785 122.151 111.785Z" fill="white"/>
<path d="M77.839 93.7721C81.0843 93.7721 83.7151 91.1412 83.7151 87.896C83.7151 84.6507 81.0843 82.0199 77.839 82.0199C74.5937 82.0199 71.9629 84.6507 71.9629 87.896C71.9629 91.1412 74.5937 93.7721 77.839 93.7721Z" fill="black"/>
<path d="M80.9125 87.635C82.4658 87.635 83.7249 86.3758 83.7249 84.8225C83.7249 83.2693 82.4658 82.0101 80.9125 82.0101C79.3593 82.0101 78.1001 83.2693 78.1001 84.8225C78.1001 86.3758 79.3593 87.635 80.9125 87.635Z" fill="white"/>
<path d="M122.152 93.7721C125.397 93.7721 128.028 91.1412 128.028 87.896C128.028 84.6507 125.397 82.0199 122.152 82.0199C118.906 82.0199 116.275 84.6507 116.275 87.896C116.275 91.1412 118.906 93.7721 122.152 93.7721Z" fill="black"/>
<path d="M125.225 87.635C126.778 87.635 128.037 86.3758 128.037 84.8225C128.037 83.2693 126.778 82.0101 125.225 82.0101C123.672 82.0101 122.413 83.2693 122.413 84.8225C122.413 86.3758 123.672 87.635 125.225 87.635Z" fill="white"/>
<path opacity="0.15" fill-rule="evenodd" clip-rule="evenodd" d="M99.5361 0.00964355C126.058 0.00964355 151.493 10.5448 170.247 29.2975C189 48.0502 199.536 73.4844 199.536 100.005C199.536 126.525 189 151.959 170.247 170.712C151.493 189.465 126.058 200 99.5361 200V0.00964355Z" fill="black"/>
</svg>
